<?xml version="1.0" encoding="utf-8"?>
<!-- Generator: Adobe Illustrator 27.0.1, SVG Export Plug-In . SVG Version: 6.00 Build 0)  -->
<svg version="1.1" xmlns="http://www.w3.org/2000/svg" xmlns:xlink="http://www.w3.org/1999/xlink" x="0px" y="0px"
	 viewBox="0 0 1366 768" style="enable-background:new 0 0 1366 768;" xml:space="preserve">
<style type="text/css">
	.st0{display:none;}
	.st1{display:inline;fill:#FDCA00;}
	.st2{fill:#333812;}
</style>
<g id="Layer_1" class="st0">
	<path class="st1" d="M968.72,478.57c-0.42-0.44-1.02-0.92-0.4-1.64c-0.16-0.85,0.54-1.46,0.63-2.27c0.27-2.55-0.79-4.43-2.75-5.91
		c-0.31-0.24-0.72-0.36-0.86-0.78c-1.99-1.01-4.24-1.52-6.16-2.53c-1.8-0.94-2.53-0.01-3.6,0.73c-1.16,0.81-2.55,0.82-3.84,1.12
		c-2.71,0.64-5.46,1.07-8.19,1.64c-0.62,0.13-0.91-0.13-1.26-0.52c-0.79-0.88-0.83-2.02-1.07-3.07c-0.14-0.62,0.36-0.96,1.03-0.97
		c0.77-0.01,1.54,0.12,2.16,0.51c1.11,0.7,1.89,0.26,2.72-0.47c0.27-0.23,0.34-0.39,0.31-0.73c-0.07-0.69-0.09-1.39-0.1-2.08
		c-0.01-0.83,0.16-1.67-0.88-2.14c-1-0.45-1.47,0.24-2.07,0.71c-1.98-0.8-4.03-1.47-5.57-3.05c-0.26-0.27-0.12-0.66,0.03-0.99
		c0.33-0.72,0.61-1.46,0.98-2.15c0.34-0.65,0.69-1.4,1.36-0.18c0.46,0.84,0.91,0.55,1.22-0.18c0.25-0.59,0.52-1.17,0.72-1.78
		c0.12-0.37,0.21-0.84-0.08-1.14c-0.36-0.38-0.71,0.15-1.08,0.17l0,0c-0.17,0.1-0.34,0.2-0.5,0.32c-0.8,0.55-1.63,0.72-2.49,0.13
		c-0.9-0.62,0.19-1.22,0.03-1.95c-0.87,0.15-1.6,0.82-2.51,0.62c-0.29-0.06-0.65-0.04-0.75-0.38c-0.11-0.36,0.21-0.55,0.47-0.66
		c0.67-0.3,1.37-0.55,2.05-0.82c0.41-0.69,0.89-1.34-0.12-1.99c-0.36-0.24-0.3-0.81-0.23-1.26c0.14-0.87-0.01-1.67-0.44-2.43
		c-0.21,0.3-0.42,0.6-0.63,0.9v0c-0.71,0.15-1.47,0.12-2.07,0.62c-1.4,1.02-1.6,0.99-2.07-0.49c-0.18-0.55-0.57-0.62-1-0.74
		c-1.58-0.44-3.16-0.33-4.75-0.07c-0.88,0.15-1.78,0.21-2.67,0.27c-0.23,0.02-0.53-0.08-0.53-0.4c-0.01-0.33,0.25-0.38,0.51-0.39
		c1.74-1.12,3.64-1.7,5.7-1.81c1.43-0.55,2.92-0.25,4.38-0.3c0.57-0.02,1.2,0.24,1.67-0.31h0c-0.78-1.04-1.33-2.22-1.91-3.37
		c-0.21-0.42-0.24-1.01-0.85-1.14v0c-0.43,0.42-0.86,0.83-1.27,1.26c-0.5,0.52-0.94,0.45-1.36-0.08c-0.46-0.59-0.04-1.09,0.4-1.16
		c1.54-0.26,0.97-1.22,0.89-2.13c-0.14-1.72-0.86-3.16-1.93-4.46v0l0,0l0,0l-0.12-0.24c-0.07-0.13-0.12-0.24-0.12-0.24
		c1.41-0.81,0.26-2.1,0.59-3.09c0.43-1.3-0.31-1.34-1.21-1.24c-0.54,0.06-1.06,0.26-1.6,0.3c-0.44,0.03-0.77-0.23-0.78-0.71
		c-0.01-0.41,0.28-0.59,0.64-0.71c1.75-0.58,4.01,0.04,5.26,1.47l0,0c0.25,0.02,0.56,0.17,0.58-0.28c-0.1-0.11-0.19-0.22-0.29-0.33
		c-1.13-1.5-2.67-1.98-4.47-1.82l0,0c-0.36,0.29-0.8,0.33-0.99-0.1c-0.27-0.6,0.33-0.81,0.68-1.11c0.73-1.27-0.13-2.37-0.32-3.79
		c-0.61,0.83-0.25,1.77-0.86,2.33l0,0v0c-1.03,0.52-1.59-0.18-2.16-0.84c-1.15-0.3-1.48,1.21-2.52,1.15l0,0
		c-1.69,0.59-3.39,1.39-4.86-0.45c-0.23-0.29-0.55-0.11-0.84-0.07c-0.64,0.09-1.29,0.18-1.93,0.28c-0.51,0.07-1.15,0.18-1.29-0.41
		c-0.19-0.79,0.61-0.56,1.02-0.71c0.52-0.18,1.05-0.32,1.55-0.54c1.37-0.6,2.37-0.3,2.86,1.18c0.26,0.78,0.5,0.53,0.91,0.3
		c0.49-0.72,0.52-2.38,2.04-0.96c0.22,0.2,0.45-0.09,0.6-0.27c0.77-0.95,1.64-0.91,2.65-0.38c0.47,0.25,1.15,0.46,1.56,0.1
		c0.56-0.49-0.19-0.96-0.34-1.42c-0.26-0.78-0.85-1.46-0.24-2.33c0.15-0.21,0.03-0.5-0.24-0.61c-1.03-0.43-0.56-0.9-0.1-1.36
		l-0.02-0.14c-0.76-0.77-1.73-0.11-2.58-0.31c-0.48-0.11-1.27,0.27-1.33-0.52c-0.05-0.65,0.63-0.77,1.19-0.88
		c1.21-0.24,2.37-0.4,3.01-1.81c0.4-0.87,1.71-0.04,2.51-0.77c-0.46-0.92-1.43-1.6-1.85-2.68c-0.21-0.54-0.75,0.14-1.12,0.29
		c-0.75,0.3-1.42,0.5-1.42-0.66c0-0.8-0.57-0.54-0.95-0.54c-0.95-0.01-1.9-0.02-2.77-0.47c-0.3-0.15-0.72-0.28-0.29-0.73
		c0.24-0.29,0.73-0.8,0.17-0.92c-1.57-0.35-0.92-1.2-0.58-1.99c0.21-0.49,0.21-0.95-0.34-1.1c-1.03-0.27-1.44-1.16-2.08-1.97
		c-0.99,1.17-1.71,2.36-0.66,3.75c0.66,0.87,0.25,1.02-0.49,1.27c-1.44,0.49-2.94,0.58-4.42,0.52c-1.44-0.05-2.44-2.11-1.95-3.72
		c0.33-1.05,1.08-1.78,1.86-2.48c1.88-1.69,4.13-2.62,6.59-3.08c0.49-0.09,1.05-0.1,1.14-0.74c0.22-1.68,1.19-1.37,2.25-0.88
		l0.13-0.06c0.46-2.31,2.54-1.93,4.06-2.37c2.79-0.81,5.62-1.47,8.44-2.17c2.35-0.58,4.69-1.22,7.02-1.88
		c2.72-0.77,5.39-1.68,8.06-2.61c0.37-0.13,0.73-0.34,1.15-0.22c3.21-1.07,6.1-2.77,8.95-4.54c0.37-0.57,0.87-0.98,1.52-1.19h0
		c1.81-1.72,3.42-3.62,4.78-5.72c1.43-3.11,2.09-6.32,1.27-9.71c-0.3-1.25,0.13-2.23,0.82-3.18c1.05-3.94-0.04-7.54-1.69-11.07
		c-0.12-0.26-0.08-0.59-0.11-0.88l0,0l0,0c-2.07-3.95-3.29-8.15-4-12.56c-0.63-3.9-1.15-7.91-4-11.04
		c-0.41-0.44-0.44-0.91-0.27-1.51c1.14-4.05,0.54-8.09-0.14-12.14c-0.61-3.63-1.32-7.27-1.11-10.98c0.06-1.04-0.26-1.62-1.21-2.11
		c-1.72-0.88-3.53-1.64-4.9-3.08c-0.53-0.56-0.89-1.1-0.74-1.98c0.97-5.35-0.8-8.46-5.92-10.53c-1.06-0.43-2.11-0.86-3.16-1.3
		c-1.25-0.33-1.72,0.98-2.68,1.27v0c-1.29,0.89-2.86,0.85-4.3,1.15c-8.03,1.67-15.97,3.66-23.74,6.32c-3.46,1.19-6.92,2.4-10.38,3.6
		c-7.73,3.37-15.16,7.43-23.26,9.98c-5.08,1.6-9.87,3.91-14.52,6.51c-0.85,0.86-1.84,1.49-3.02,1.79
		c-5.3,3.39-10.72,6.57-16.43,9.22c-0.4,0.19-0.84,0.35-1.17,0.62c-0.4,0.33-1.52,0.27-0.73,1.39c0.26,0.36-0.59,0.25-0.87,0.46
		c-0.33,0.6-0.88,0.68-1.49,0.61l0,0c-0.26,0.53-0.68,0.68-1.23,0.56c-4.73,2.08-9.15,4.82-14.06,6.52
		c-2.85,0.98-5.74,1.19-8.7,0.97c-0.55-0.04-1.1-0.15-1.58,0.24c-0.55,0.45-1.11,0.71-1.72,0.12c-0.57-0.55-1.13-1.05-0.82-2.05
		c1.57-5.09,0.69-10.19-0.1-15.26c-0.45-2.88-0.72-5.75-0.46-8.65c0.1-1.11-0.24-1.58-1.3-1.94c-1.78-0.59-3.62-1.13-5.19-2.24
		c-0.95-0.67-1.62-1.39-1.07-2.73c1.93-4.76-0.83-7.33-4.11-8.79c-1.63-0.73-3.33-1.32-5.15-1.43c-0.15-0.01-0.37,0.02-0.44-0.06
		c-1.22-1.44-1.87-0.02-2.51,0.6c-1.57,1.52-3.66,1.78-5.58,2.36c-7.74,2.36-15.39,4.98-22.92,7.95c-3.79,1.5-7.52,3.13-11.28,4.71
		c-0.66,0.28-1.45,0.57-1.18-0.6c0.91-4.02-0.74-7.53-2.09-11.11c-0.28-0.74-0.6-1.47-0.9-2.2c-0.53-0.36-0.74-0.86-0.61-1.5
		c-1.5-3.71-2.15-7.63-2.94-11.53c-0.6-2.98-1.32-5.94-3.21-8.44c-0.38-0.5-0.57-1.01-0.46-1.66c0.45-2.78,0.27-5.57,0.01-8.36
		c-97.29,0-194.58,0-291.87,0c-0.19,0.84-1.03,0.87-1.59,1.15c-12.46,6.07-24.87,12.24-37.15,18.67c-0.3,0.16-0.71,0.12-0.89,0.48
		c0.35,0.33-1.48,0.66,0,0.98c2.61-1.1,5.22-2.2,7.83-3.3c0.91-0.91,2.25-0.9,3.29-1.53l0,0c0.52-0.4,1.25-0.24,1.78-0.7
		c0.26-0.22,0.74-0.21,0.91,0.16c0.22,0.5-0.33,0.49-0.58,0.67c-0.36,0.25-0.69,0.6-1.19,0.5c-1.01,0.38-1.84,1.19-2.99,1.23
		c-5.59,3-11.18,6-16.78,9.01l-0.15,0.09c-4.87,2.92-9.98,5.37-15.11,7.8c-1.97,0.93-3.99,1.75-5.98,2.64
		c-0.42,0.19-0.81,0.37-1.28,0.28c-2.3,0.65-3.69,2.43-5.13,4.14c-0.39,0.93-1.49,0.9-2.23,1.67c2.13,0.34,4.35-0.37,6.16,1.06
		c0.75,0.47,0.47,0.9-0.12,1.18c-1.99,0.96-3.95,2.01-6.15,2.44l0,0c-1.45,0.99-3.21,1.12-4.81,1.71c-0.52,0.19-0.8-0.25-0.82-0.77
		c-0.02-0.47-0.09-0.9-0.66-0.99l0,0l0,0c-0.68-0.41-0.65-0.54,0.3-1.14c0.41-0.42,0.82-0.84,1.22-1.25l-0.02-0.06
		c-0.22,0.02-0.44,0.04-0.66,0.06c-1.6,0.61-3.19,1.22-4.79,1.83c0,36.99,0,73.99,0,110.98c3.58-1.61,6.94-3.64,10.28-5.68
		c5.31-3.24,11.02-5.65,16.63-8.27c1.61-0.75,3.22-1.52,4.83-2.29l0,0c1.71-1.19,3.53-2.17,5.43-3.01c0.79-0.75,1.57-1.13,2.58-0.28
		c0.76,0.64,1.48,0.01,2.18-0.3c0.13-0.49,0.37-1.03-0.55-0.92c-0.4,0.05-0.91,0.05-1-0.42c-0.09-0.51,0.52-0.52,0.82-0.73
		c0.86-0.6,1.74-1.15,2.61-1.74c0.21-0.14,0.43-0.33,0.67-0.19c0.33,0.19,0.23,0.51,0.16,0.8c-0.03,0.15-0.02,0.35-0.12,0.43
		c-1.74,1.47-0.7,2.86,0.06,4.29c0.28,0.52,0.47,1.1,0.63,1.67c0.23,0.79,0.69,0.69,1.25,0.4c1.18-0.86,3.83-0.59,4.59,0.52
		c0.54,0.8-0.39,1.1-0.7,1.57c-0.35,0.53-0.78,0.77-1.46,0.19c-1.4-1.2-2.3-1.22-3.28-0.27c-0.56,0.54-0.89,1.13-0.1,1.75
		c0.88,0.69,0.89,1.78,1.1,2.71c0.17,0.74-0.54,1.35-1.23,1.71c-1.72,0.88-3.44,1.82-5.41,2.03c-0.87,0.1-1.53,0.41-1.81,1.3
		c-0.04,0.14-0.08,0.35-0.18,0.4c-2.6,1.19-1.22,3.7-1.82,5.54c-0.25,0.79,0.21,1.2,1.12,0.93c1.36-0.4,2.38-1.19,3.17-2.34
		c0.33-0.48,0.62-1.07,1.38-0.95c1.99,0.32,3.83-0.44,5.73-0.79c0.65-0.12,1.35-0.31,1.82,0.27c0.48,0.59-0.11,1.16-0.34,1.64
		c-0.7,1.47-1.73,2.79-2.21,4.37c-0.17,0.57-0.44,0.5-0.89,0.29c-1.88-0.88-1.93-0.82-2.69,1.1c-0.42,1.06-0.98,2.07-1.47,3.1
		c-0.17,0.37-0.37,0.83,0,1.1c0.4,0.29,0.72-0.12,1-0.39c0.71-0.69,1.42-1.39,2.13-2.09l0,0c0.34-0.61,0.8-1.07,1.54-1.17l0,0
		c0.41-0.68,1.09-0.94,1.81-1.07c0.48-0.09,0.86,0.13,1.07,0.59c0.21,0.46,0.08,0.75-0.45,0.82c-0.2,0.3-0.74,0.58-0.32,0.95
		c0.37,0.33,0.57-0.22,0.76-0.43c0.79-0.88,1.68-1.62,2.78-2.08c0.18-0.44,0.63-0.43,0.99-0.58c0.24-0.1,0.52-0.17,0.65,0.1
		c0.18,0.39,0.02,0.67-0.4,0.78c-0.54,0.86-1.32,1.47-2.14,2.05c-0.9,0.63-1.76,1.33-2.32,2.29c-0.31,0.52-1.2,1.33,0.37,1.46
		c0.54,0.04,0.62,0.56,0.5,0.92c-0.61,1.94,0.3,3.36,1.54,4.67c1.22,0.86,2.3,1.87,3.27,3.01c0.55-0.01,0.59,0.61,1.07,0.85
		c0.07-1.27,1.06-1.74,1.91-2.34c0.48-0.56,0.94-1.14,1.46-1.67c0.32-0.32,0.72-0.28,1.06,0.04c0.41,0.39,0.2,0.74-0.11,1.02
		c-0.7,0.62-1.43,1.21-2.14,1.81c-0.59,0.72,0.25,1.38,0.08,2.08c0.26,0.81,0.15,1.61-0.02,2.41c0.39,0.88,1.57,0.22,2.09,1.25
		c0.55,1.09,0.59,1.62-0.65,1.88c-0.58,0.12-1.19,0.12-1.74,0.3c-0.4,0.13-0.73,0.48-0.02,0.76c2.06-0.09,2.42,0.47,1.51,2.43
		c-0.04,0.42-0.09,0.84-0.14,1.31c1.38-0.22,2.35-1.09,3.41-1.77c0.5-0.32,0.97-0.69,1.49-0.97c0.4-0.22,0.95-0.78,1.29-0.22
		c0.31,0.52-0.43,0.78-0.78,1.07c-1.83,1.46-3.78,2.66-6.09,3.27c-1.42,0.38-2.7-0.03-4.21-0.32l-0.02,0.02
		c1.04,1.66,2.39,2.21,4.1,2.02l0,0c1.4-0.79,2.8-1.58,4.2-2.37c0.23-0.61,0.75-1.12,1.28-0.76c0.5,0.33,0.16,0.86-0.42,1.05
		c-1.27,1.33-1.44,2.86-0.81,4.53c0.09,0.25,0.17,0.64,0.52,0.63c0.32-0.01,0.49-0.35,0.55-0.63c0.1-0.43,0.11-0.88,0.15-1.32
		c0.15-1.78,2.1-3.17,3.81-2.7c0.16,0.04,0.27,0.27,0.4,0.41c0.34,0.06,0.57-0.14,0.8-0.34l0.23-0.26l0,0
		c0.46-0.84,1.01-1.6,1.86-2.11l0,0l0,0l0,0c0.29-0.52,0.71-0.89,1.26-1.11c1.02-1.08,2.39-1.65,3.62-2.43
		c0.76-0.7,1.74-0.91,2.68-1.22l0.14-0.02c1.32,1.32,2.15,0.01,3.1-0.58c1.49-0.93,2.85-2.1,4.72-2.37
		c-1.32,2.01-3.78,2.69-5.25,4.51c-0.02,0.9,1.25,1.95-0.32,2.65v0c-0.59,0.14-0.79,0.94-1.5,0.87c-1.93,1.64-4.4,2.19-6.6,3.3
		c-0.37,0.93-1.08,0.59-1.97,0.54c1.04-1.15,1.4-2.62,2.95-3.1c-1.1-0.76-1.17-0.77-1.77,0.1c-0.2,0.29-0.31,0.62-0.71,0.69
		c-0.51,0.29-0.84,0.84-1.47,0.95c-0.97,0.86-2.25,0.99-3.41,1.37c-2,0.65-2.19,1.35-0.71,2.85c0.89,0.9,0.12,1.48-0.39,2.13l0,0
		c0.02,0.15-0.02,0.37,0.07,0.43c1.1,0.79,1.1,0.78,0.52,2.27c1.79-0.63,3.15-1.82,4.76-2.51c0.16-0.1,0.31-0.22,0.48-0.31
		c0.37-0.2,0.85-0.61,1.13-0.13c0.32,0.56-0.3,0.78-0.7,1.01c-1.79,1.33-3.57,2.66-5.36,3.99l0,0l0,0
		c-0.46,0.76-1.02,1.47-1.25,2.36c-0.07,0.27-0.31,0.69-0.49,0.7c-1.8,0.09-2.69,1.9-4.34,2.23c0.05,0.26-0.06,0.57,0.39,0.63
		c0.75,0.1,0.47,0.54,0.25,0.93h0c0.61,0.21,1.11-0.04,1.62-0.35c0.46-0.28,0.93-0.39,1.07,0.37l0.03-0.03
		c0.71-0.1,1.1-0.62,1.46-1.16c0.25-0.37,0.51-0.74,0.95-0.89c0.3-0.1,0.69-0.36,0.92,0.05c0.17,0.3-0.1,0.55-0.33,0.75
		c-0.81,0.71-1.63,1.41-2.45,2.11l0,0c-0.28,0.22-0.4,0.66-0.87,0.61c-18.11,8.09-35.73,17.19-53.52,25.93
		c-0.27,0.13-0.52,0.29-0.78,0.44l0,0c-0.32,0.59-0.83,0.74-1.45,0.66c-2.42,1.06-4.62,2.61-7.22,3.28c0,24.2,0,48.39,0,72.59
		c1.49-0.55,2.97-1.26,4.55-0.25l0.23-0.08c0.3-0.68,0.95-0.71,1.54-0.84c1.04-0.27,1.83-1.1,2.91-1.26l0,0
		c0.29-0.47,0.73-0.61,1.25-0.59c1.02-0.86,2.27-1.12,3.81-1.42c-0.68,1.15-1.59,1.51-2.55,1.8c-0.36,0.55-0.98,0.65-1.53,0.86
		c-1.8,1.21-4.02,1.75-5.47,3.51c0.04,0.12,0.07,0.24,0.11,0.36c0.38,0.09,1.04-0.16,0.94,0.55c-0.1,0.69-0.45,1.31-1.34,1.23l0,0
		c-0.1,0-0.2-0.01-0.29-0.04c-1.23,1.02-2.47,2.03-4.16,2.17c0,5,0,10,0,15c3.98-2.24,8.13-4.13,12.37-5.81
		c0.55-0.22,1.12-0.44,1.74-0.19l0,0c1.84,0.45,2.2,1.33,1.3,3.17l-0.08,0.17c-0.69,1.4-1.98,2.27-2.95,3.5
		c1.34-0.57,2.65-1.2,4.02-1.69c1.07-0.38,2.17-0.71,3.33-0.71c0.45,0,1.15-0.51,1.25,0.19c0.1,0.68-0.46,1.16-1.28,1.03l0,0l0,0
		c-1.85,0.72-3.7,1.45-5.55,2.17c0.05,0.84,0.65,0.56,1.11,0.54c2.11-0.09,3.84-1.25,5.66-2.11c1.36-0.64,2.61-1.52,4.17-1.73
		c-1.61,1.89-3.76,2.97-5.93,4c-4.41,2.09-9.19,3.12-13.78,4.68c-1.03,0.35-2.02,0.79-3.06,1.12c-0.83,0.27-1.42,0.67-1.4,1.63
		c-0.26,0.26-0.6,0.24-0.93,0.25c0,1.35,0.04,2.7-0.02,4.05c-0.03,0.62,0.32,0.43,0.62,0.45l0.18-0.23c1.98-0.47,3.95-1.07,6.01-1
		c0.23,0,0.46,0,0.7,0.04c0.37,0.55,0.73,0.35,1.25,0.14c4.27-1.68,8.57-3.31,12.86-4.95l0,0l0,0l0,0c0.25-0.13,0.47-0.38,0.74-0.42
		c1.64-0.93,3.38-1.62,5.25-1.98c6.15-2.65,12.31-5.28,18.45-7.96c11.05-4.82,21.98-9.92,32.91-15c6.98-3.24,13.96-6.49,20.93-9.73
		c1.15-0.92,2.39-1.67,3.91-1.79c0.15-0.36,0.43-0.58,0.8-0.58c2.85,0.04,5.23-1.31,7.64-2.58c0.17-0.09,0.38-0.1,0.57-0.14
		c3.04-1.6,5.65-3.9,8.75-5.39c7.24-3.5,14.5-6.97,21.75-10.47c1.56-0.76,3.07-1.61,4.61-2.42c-0.25-0.31-0.63-0.28-0.96-0.37
		c-0.98-0.09-1.88,0.44-2.9,0.32c1.4-1.54,3.12-2.45,5.17-2.58c0.43-0.03,1.51,0.05,0.77,1.1c0.08,0.22,0.16,0.45,0.25,0.67h0
		c0.1,0.1,0.2,0.19,0.31,0.29c0.97-0.51,1.98-0.8,3.08-0.63c6.4-3.98,12.93-7.74,19.64-11.17c0.26-0.13,0.5-0.33,0.74-0.5
		c-0.2-1.46-1.13,0.19-1.54-0.36c-2.74,0.86-5.36,2.09-8.21,2.63c-0.34,0.06-0.66,0.26-1.28-0.12c7.09-4.74,15.2-7.21,22.33-11.53
		l0,0c0.14-0.68,1.68-0.82,0.77-1.95c-0.03-0.04,0.38-0.54,0.66-0.7c1.1-0.64,2.23-1.24,3.35-1.85l0.17-0.07
		c2.34-0.94,4.69-1.87,7.03-2.81l0.17,0.26c-0.73,0.69-1.46,1.38-2.19,2.07c-0.24,0.44-0.5,0.9-0.39,1.4
		c0.22,1.06-0.34,1.65-1.14,2.15c0.22,0.12,0.45,0.25,0.67,0.37c1.02,0.03,2.03,0.06,2.57-1.11c0.14-0.31,0.53-0.38,0.9-0.13
		c1.66,1.12,1.79,2.25,0.39,3.61c0.23,0.58,0.8,0.39,1.22,0.55c0.85,0.33,0.42,0.64-0.05,0.93c-0.17,0.47-0.44,1.17,0.47,0.72
		c0.75-0.37,1.56-0.55,2.28-0.96v0l0.24-0.07c0.5-0.21,0.94-0.58,1.53-0.59c0.09-0.02,0.18-0.03,0.27-0.02
		c0.63-0.4,1.26-0.82,2.06-0.46c0.09,0.04,0.19,0.31,0.15,0.36c-0.45,0.55-1.14,0.7-1.74,1c-0.39,0.2-0.84,0.27-1.26,0.41l0,0
		c-1.82,0.48-3.65,0.96-5.47,1.44c-2.32,0.84-4.04,2.48-5.68,4.24c-0.96,1.54-2.73,1.73-4.18,2.35c-7.27,3.14-14.42,6.53-21.5,10.09
		c-0.13,0.07-0.29,0.09-0.43,0.13c-2.26,1.48-4.65,2.7-7.2,3.6c-1,0.5-1.99,1-2.99,1.5c-3.75,2.23-7.75,3.99-11.66,5.92
		c-3.28,1.61-6.53,3.3-9.95,4.59c-3.78,1.75-7.61,3.4-11.5,4.9c-0.45,0.18-1.04,0.29-1.13,0.86c-0.09,0.6,0.56,0.57,0.88,0.82
		c1.26,1,0.1,1.83-0.24,2.72c-0.51,0.83-1.37,0.85-2.2,0.97c-1.15,0.16-1.93,0.59-1.76,1.99c0.11,0.9-0.12,1.77-0.89,2.38
		c-1.11,0.8-1.59,1.62-0.57,2.93c0.59,0.76,0.89,1.78,1.17,2.72c0.23,0.77,0.43,0.98,1.22,0.56c1.51-0.82,3.65-0.5,4.9,0.58
		c0.46,0.39,0.49,0.68-0.01,1.05c-0.6,0.44-0.98,1.69-1.99,0.78c-0.9-0.81-1.83-1.17-2.99-0.94c-1.54,0.3-1.84,1.22-0.81,2.37
		c1.46,1.62,1.01,3.35-1.03,4.18c-2.08,0.85-4.18,1.6-6.46,1.64c-0.5,0.01-0.88,0.11-0.99,0.67c-0.03,0.14-0.16,0.25-0.22,0.39
		c-0.45,1.04-2.19,0.92-2.24,1.92c-0.04,0.96,0.17,1.89-0.22,2.88c-0.63,1.61-0.18,2.02,1.53,1.78c1.51-0.21,2.5-1.15,3.45-2.19
		c0.5-0.55,0.96-0.89,1.8-0.55c1.16,0.46,2.35,0.07,3.53-0.16c0.97-0.19,1.98-0.24,2.98-0.23c1.58,0.01,1.73,0.29,0.98,1.62
		c-0.88,1.55-2.25,2.8-2.85,4.53c-0.16,0.47-0.52,0.34-0.85,0.11c-1.81-1.23-2.12-1.12-3.14,0.84c-0.5,0.97-1.17,1.85-1.68,2.82
		c-0.19,0.35-0.56,0.86-0.11,1.22c0.42,0.34,0.81-0.03,1.19-0.29c1.14-0.79,2.12-1.81,3.39-2.42h0h0c0.32-0.28,0.64-0.56,0.96-0.84
		c1.15-0.99,2.28-0.93,3.28,0.14c0.16,0.17,0.39,0.28,0.59,0.42c1.02-0.5,2.03-1.02,3.06-1.5c0.26-0.12,0.62-0.26,0.84,0.01
		c0.33,0.41-0.14,0.61-0.34,0.84c-0.83,0.96-1.93,1.55-3.01,2.17c-0.97,0.55-1.78,1.26-2.47,2.12c-0.46,0.57-0.73,1.01,0.37,1.13
		c1.37,0.14,0.65,1.15,0.68,1.84c1,0,2,0,3,0c1.41-1.45,3.04-2.59,4.81-3.54c0.23-0.12,0.77-0.39,0.82,0.19
		c0.16,1.77,1.36,1,2.07,0.74c2.65-0.96,5.24-2.06,7.86-3.11c1.61-0.79,3.23-1.58,4.84-2.37c0.12-0.09,0.22-0.24,0.35-0.26
		c0.55-0.11,1.24-0.99,1.54-0.35c0.31,0.66-0.61,1.04-1.27,1.25c-0.91,0.82-1.93,1.5-3.03,2.05c-2.94,1.91-5.96,3.67-9.29,4.83
		c-0.1,0.19-0.21,0.38-0.31,0.57c121.19,0,242.38,0,363.57,0c-0.03-0.27,0.05-0.46,0.32-0.59c8.65-3.82,17.2-7.88,26.27-10.65
		c1.33-0.41,2.65-0.81,3.97-1.24c1.29-0.42,2.5-0.94,3.22-2.23c0.28-0.51,0.76-0.91,1.32-1.18c0.51-0.85,1.61-0.71,2.37-1.49
		c-2.14-0.06-4.21,0.01-5.98-1.24c-0.51-0.11-1.03-0.34-1.04-0.88c0-0.58,0.66-0.44,1.03-0.61c0.49-0.22,1-0.39,1.51-0.58
		c0.35-0.89,1.27-0.62,1.91-0.86c1.12-0.42,2.33-0.62,3.5-0.92c1.25-0.26,2.51-0.46,3.74-0.78c0.81-0.21,1.3-0.01,1.36,0.81
		c0.05,0.74,1.41,1.07,0.59,2.03c-0.08,0.4-0.76,0.43-0.59,0.98l0,0l0,0c0.5-0.03,0.99-0.05,1.49-0.08c2.73-0.71,5.44-1.51,8.2-2.11
		c6.36-1.39,12.58-3.14,18.18-6.61l0,0c0.87-1.47,2.53-1.31,3.83-1.65c5.38-1.38,10.82-2.47,16.22-3.78
		c3.86-0.94,7.67-2.08,11.5-3.15c0.39-0.11,0.76-0.23,1.17-0.11c2.2-0.79,4.41-1.59,6.61-2.38c0.35-0.56,0.87-0.72,1.5-0.61
		c1.9-0.9,3.8-1.8,5.7-2.7c0-28,0-55.99,0-83.99C971.45,480.7,969.95,479.85,968.72,478.57z M917.93,414.57
		c0.74,0.01,1.49,0.01,2.23,0.08c0.57,0.06,1.29,0.02,1.53,0.68c0.21,0.57-0.44,0.73-0.77,0.93c-0.63,0.38-1.71,0.91-2,0.26
		c-0.58-1.32-1.35-1.11-2.52-0.6C916.72,414.88,917.22,414.57,917.93,414.57z M910.27,395.42c0.22,0.01,0.35,0.13,0.34,0.37
		c-0.07,0.21-0.22,0.33-0.44,0.32c-0.22-0.01-0.37-0.14-0.33-0.37C909.88,395.51,910.06,395.42,910.27,395.42z M401.32,287.99
		c-1.37,0.78-2.73,1.59-4.09,2.39c-0.5,0.9-1.49,0.92-2.29,1.11c-0.79,0.19-1.2-0.39-0.92-1.21c0.23-0.67,0.59-1.27,1.38-1.43
		c1.68-1.15,3.42-2.18,5.52-2.32c0.5-0.03,1.2-0.22,1.35,0.53C402.41,287.74,401.73,287.76,401.32,287.99z M430.24,419.67
		c-2.25,2.01-4.56,3.92-7.2,5.41c-3.54,2.5-7.39,4.46-11.18,6.54c-0.62,0.34-1.33,0.24-1.45-0.46c-0.14-0.79-1.34-1.86-0.25-2.35
		c1.91-0.86,3.08-2.48,4.67-3.64c0.53-0.39,1.2-1.45,1.6,0.24c0.18,0.78,1.01,0.39,1.53,0.13c2.48-1.25,4.95-2.53,7.42-3.8
		c0.42-0.28,0.85-0.57,1.27-0.85c0.7-0.89,1.67-1.38,2.7-1.77v0l0,0c0.15-0.12,0.29-0.3,0.46-0.36c0.52-0.19,1.19-1,1.51-0.45
		C431.71,418.98,430.85,419.38,430.24,419.67z M682.36,335.11c2.03-0.99,4.19-1.54,6.42-1.81c0.25-0.03,0.5,0.03,0.59,0.34
		c-0.01,0.29-0.25,0.38-0.46,0.51c-1.4,0.86-2.78,1.74-4.19,2.58c-0.63,0.38-2.41-0.35-2.63-1.03
		C682,335.4,682.1,335.23,682.36,335.11z M654.29,484.21c0.84-0.04,1.82-0.4,2.39,0.68c1.03,1.91,2.09,3.81,3.14,5.72
		c0.13-0.01,0.26-0.03,0.39-0.04c0-1.56,0.02-3.11-0.01-4.67c-0.02-0.97-0.03-1.74,1.34-1.77c1.39-0.03,1.52,0.67,1.5,1.77
		c-0.04,2.89,0,5.79-0.02,8.68c0,0.55,0.23,1.39-0.62,1.44c-0.85,0.05-1.89,0.52-2.5-0.67c-0.91-1.77-1.9-3.49-2.87-5.22
		c-0.14-0.25-0.37-0.44-0.85-1c0,2.23-0.04,4.02,0.02,5.8c0.03,0.94-0.35,1.18-1.24,1.19c-0.91,0.01-1.39-0.19-1.37-1.22
		c0.04-3.09,0.01-6.18,0.04-9.28C653.63,485.06,653.38,484.25,654.29,484.21z M641.06,371.75c1.62-0.08,3.04,1.04,3.06,2.41
		c0.02,0.86-0.38,1.29-1.26,1.28c-1.57-0.02-3.02-1.17-2.96-2.41C639.94,372.32,640.24,371.79,641.06,371.75z M586.76,386.61
		c0.53-0.18,0.84-0.83,1.58-0.69c0.04,0.72-0.47,1-0.96,1.3c-0.64,0.33-0.78,1.29-1.67,1.29l0,0c-0.71,0.6-1.55,0.96-2.44,1.2l0,0
		c-0.58,0.66-1.43,0.8-2.16,1.17l0,0c-0.46,0.63-1.11,0.93-1.85,1.03l-0.28-0.26c0.15-0.82,0.94-1.06,1.47-1.52
		c0.15-0.14,0.46-0.1,0.69-0.14l0,0c0.5-0.17,0.83-0.7,1.43-0.67c0.57-0.62,1.31-0.98,2.08-1.28
		C585.35,387.56,586.05,387.08,586.76,386.61L586.76,386.61z M577.31,386.9c1.65-1,3.29-1.99,4.94-2.99l0,0
		c0.75-0.67,1.7-0.97,2.57-1.42c0.26-0.14,0.59-0.15,0.83,0.09c0.16,0.16,0.15,0.42-0.06,0.5c-1.96,0.79-2.47,3.16-4.39,4
		c-0.32,0.14-0.62,0.29-0.98,0.21c-0.57,0.39-1.26,0.68-1.68,1.19c-0.58,0.71-1.42,0.74-1.78,0.31
		C576.26,388.2,576.54,387.37,577.31,386.9z M479.18,495.88c-2.2,0.96-5.75,0.18-6.78-1.6c-0.37-0.63-1.32-1.59-0.24-2.18
		c0.79-0.43,1.91-0.37,2.55,0.81c0.66,1.21,2,1.5,3.23,0.91c0.41-0.2,0.8-0.39,0.82-0.95c0.03-0.6-0.29-0.96-0.78-1.14
		c-0.83-0.31-1.68-0.59-2.53-0.85c-2.73-0.83-3.53-1.81-3.21-4c0.25-1.72,2.01-3.01,4.29-2.93c1.6,0.06,3.21,0.33,4.11,1.96
		c0.74,0.52,0.92,1.39,0.31,1.85c-0.6,0.45-1.64,0.53-2.29-0.19c-0.47-0.52-0.9-1.05-1.6-1.24c-1.24-0.33-2.07,0.45-1.81,1.69
		c1.23,0.69,2.66,0.76,3.95,1.27c1.56,0.61,2.52,1.68,2.49,3.36C481.65,494.26,480.6,495.26,479.18,495.88z M490.74,491.64
		c-0.84,0.31-2.04-0.21-2.47,0.62c-0.37,0.72-0.2,1.75-0.14,2.64c0.09,1.26-0.73,1.16-1.55,1.19c-0.91,0.04-1.39-0.21-1.34-1.26
		c0.08-1.54,0.02-3.09,0.02-4.63h-0.02c0-1.59,0.02-3.19-0.01-4.78c-0.01-0.87,0.32-1.3,1.23-1.27c1.14,0.03,2.29-0.03,3.43,0.04
		c1.9,0.11,3.32,1.42,3.55,3.19C493.7,489.44,492.69,490.93,490.74,491.64z M502.5,496.1c-1.45-0.05-2.9-0.04-4.34-0.01
		c-0.88,0.02-1.26-0.29-1.21-1.23c0.07-1.54,0.02-3.09,0.02-4.64h-0.01c0-1.55,0.03-3.1-0.01-4.64c-0.03-1,0.31-1.48,1.38-1.44
		c1.55,0.05,3.1,0.04,4.64,0c0.91-0.03,1.1,0.42,1.07,1.2c-0.03,0.7-0.06,1.32-1.01,1.29c-0.65-0.03-1.3,0.03-1.95-0.02
		c-0.85-0.06-1.29,0.17-1.27,1.15c0.02,0.97,0.45,1.21,1.3,1.13c0.5-0.04,1,0.01,1.5-0.01c0.81-0.04,1.34,0.13,1.34,1.12
		c0,0.95-0.33,1.4-1.3,1.35c-0.55-0.03-1.1,0.03-1.65-0.01c-0.93-0.07-1.19,0.33-1.19,1.23c0,0.96,0.49,1.05,1.23,1.01
		c0.5-0.03,1,0.02,1.5-0.01c0.87-0.05,1.52-0.05,1.54,1.19C504.07,496,503.48,496.13,502.5,496.1z M518.75,494.04
		c-1.64,1.96-3.87,2.58-6.2,1.92c-2.46-0.69-4.09-2.55-4.48-5.11c-0.38-2.49,0.83-4.38,2.81-5.85c2.67-1.99,7.05-0.78,8.46,1.85
		c0.58,1.08,0.23,1.26-0.79,1.33c-1.23,0.09-2.06-0.54-2.87-1.29c-0.99-0.01-1.97-0.02-2.96-0.03c-1.64,1.15-2.28,2.95-1.66,4.65
		c0.5,1.36,2.05,2.25,3.6,2.1c0.81-0.08,1.39-0.5,1.92-1.05c0.24-0.25,0.41-0.61,0.8-0.62c0.78-0.01,1.82-0.43,2.25,0.22
		C520.06,492.81,519.21,493.49,518.75,494.04z M524.97,496.1c-1.02,0.01-1.29-0.4-1.26-1.33c0.05-1.55,0.01-3.1,0.01-4.64
		c0-1.55,0.03-3.1-0.02-4.65c-0.03-0.93,0.22-1.37,1.26-1.35c0.94,0.02,1.36,0.27,1.35,1.28c-0.04,3.15-0.04,6.29,0.01,9.44
		C526.33,495.87,525.9,496.09,524.97,496.1z M530.31,496.02c-0.35-0.15-0.42-0.33-0.28-0.69c1.44-3.54,2.86-7.09,4.3-10.63
		c0.3-0.73,1.01-0.5,1.57-0.54c0.61-0.04,1.08,0.21,1.31,0.79c1.37,3.36,2.74,6.72,4.08,10.08c0.49,1.23-0.47,1-1.42,1.07
		c-0.78,0.12-1.43-0.26-1.57-1.42c-0.08-0.69-0.58-1-1.28-0.98c-0.7,0.02-1.4,0.05-2.1,0c-1-0.08-1.66,0.13-1.98,1.26
		C532.66,496,531.29,496.44,530.31,496.02z M551.22,511.81c-0.15,0.87-0.85,0.84-1.49,0.94c-0.34,0.06-0.62,0.03-0.5-0.44
		c0.2-0.79,0.88-0.86,1.52-0.98C551.14,511.25,551.28,511.42,551.22,511.81z M551.3,507.78c-1.89,0.98-3.74,2.02-5.65,2.96
		c-2.03,1-4.1,1.9-6.15,2.84l0,0c-0.36,0.35-0.7,0.74-1.29,0.57c-0.53,0.22-0.74,1.03-1.5,0.85c-0.18,0.13-0.36,0.25-0.54,0.38
		c-0.81,0.55-1.74,0.79-2.88,1.14c0.37-1.15,1.14-1.46,1.94-1.73c0.3-0.35,0.69-0.47,1.13-0.43c0.65-0.73,1.61-0.94,2.38-1.45l0,0
		c0.35-0.34,0.71-0.65,1.25-0.6c3.46-2.24,7.29-3.8,10.9-5.75c0.34-0.18,0.69-0.17,0.85,0.28
		C551.94,507.31,551.71,507.57,551.3,507.78z M550.52,496.09c-1.3-0.03-2.6-0.07-3.89,0.01c-1.24,0.08-1.84-0.26-1.73-1.65
		c0.12-1.44,0.03-2.89,0.03-4.34c0-1.6,0.03-3.19-0.01-4.79c-0.03-1.09,0.62-1.18,1.46-1.18c0.86,0,1.44,0.15,1.42,1.22
		c-0.05,2.34,0.02,4.69-0.04,7.03c-0.02,0.91,0.27,1.29,1.19,1.19c0.49-0.05,1,0.02,1.5-0.02c0.96-0.08,1.59,0.01,1.58,1.3
		C552.02,496.08,551.4,496.11,550.52,496.09z M554.78,485.22c0.05-0.75,0.34-1.07,1.09-1.07c2.49,0.01,4.98,0.01,7.47-0.01
		c0.83-0.01,0.99,0.47,0.97,1.16c-0.02,0.69-0.05,1.23-0.99,1.32c-2.38,0.23-2.38,0.27-2.38,2.73c0,1.84-0.04,3.69,0.02,5.53
		c0.03,1.07-0.52,1.2-1.4,1.22c-0.94,0.02-1.37-0.23-1.31-1.25c0.08-1.19,0.02-2.39,0.02-3.59c0-0.95-0.08-1.9,0.02-2.84
		c0.16-1.42-0.34-2.03-1.8-1.82C555.49,486.74,554.7,486.54,554.78,485.22z M556.97,517.17c-0.19,0.09-0.47,0.3-0.67,0.03
		c-0.21-0.29,0.01-0.56,0.17-0.81c0.68-0.98,1.87-0.4,2.95-1.13C558.77,516.57,557.8,516.77,556.97,517.17z M584.7,507.21
		l-0.25,0.07l0,0c-0.25,0.5-0.68,0.64-1.2,0.62c-1.62,1.13-3.65,1.55-5.14,2.92c-0.03,0.53-0.84,1.07,0.16,1.6
		c0.34,0.18-0.02,0.71-0.51,0.8l0,0c-0.19,0.09-0.38,0.19-0.57,0.28c-0.38,0.24-0.68,0.62-1.17,0.65c-2.68,1.61-5.77,2.02-8.69,2.92
		c-0.21,0.06-0.59,0.03-0.69-0.1c-0.24-0.33,0.12-0.5,0.34-0.68c0.63-0.48,1.25-0.96,1.87-1.45c-0.14-1.6-1.42-0.74-2.17-1.01
		c-0.54,0.1-0.55,0.9-1.17,0.9c-0.1,0.1-0.2,0.21-0.29,0.31c-0.43,0.62-0.99,0.99-1.76,0.96c-0.29,0.42-0.72,0.56-1.21,0.57
		c-0.28,0.1-0.55,0.22-0.83,0.29c-0.67,0.19-1.63,0.74-1.9-0.07c-0.14-0.44,1.01-1,1.81-1.1c0.29-0.04,0.59-0.05,0.88-0.08
		c0.35-0.37,0.62-0.86,1.21-0.9c0.28-0.2,0.55-0.41,0.83-0.61l0,0c0.41-0.21,0.7-0.67,1.24-0.61l0,0c0.51-0.47,1.03-0.94,1.54-1.42
		c0.52-1.27,1.87-1.32,2.85-1.86c0.96-0.53,2.08-0.85,3.24-0.85c0.67,0.13,1.27-0.03,1.88-0.32c0.49-0.23,1.15-0.69,1.09,0.53
		c-0.03,0.59,0.46,0.28,0.75,0.14c1.12-0.55,2.24-1.09,3.35-1.64c0.26-0.51,0.7-0.62,1.22-0.55l0.26-0.03
		c0.34-0.61,0.93-0.61,1.51-0.6c0.61-0.83,1.58-0.5,2.52-0.96C585.51,506.71,585.38,507.18,584.7,507.21z M573.65,494.77
		c0.16,0.94-0.22,1.34-1.23,1.32c-0.94-0.01-1.42-0.26-1.33-1.27c0.05-0.54-0.03-1.1,0.02-1.65c0.15-1.63-0.07-3.16-1.13-4.48
		c-1.19-1.01-1.82-2.46-2.77-3.65c-0.25-0.31-0.26-0.64,0.13-0.88c0.61-0.37,2.56,0.01,2.99,0.62c0.45,0.65,0.89,1.31,1.27,2.01
		c0.53,0.99,1.01,1.19,1.55,0.02c0.1-0.22,0.31-0.38,0.47-0.56c0.61-1.44,1.48-2.43,3.26-2.12c0.76,0.13,1.03,0.32,0.51,1.02
		c-0.33,0.44-0.58,0.93-0.95,1.34C574.31,488.86,573.1,491.51,573.65,494.77z M593.05,491.72c-2.21,0.08-2.14,1.25-1.96,2.66
		c0.19,1.49-0.47,1.83-1.78,1.71c-0.75-0.07-1.07-0.35-1.06-1.1c0.02-1.6,0.01-3.19,0.01-4.79c0-1.6,0.02-3.19-0.01-4.79
		c-0.02-0.88,0.34-1.29,1.24-1.26c1,0.03,2-0.02,2.99,0.02c2.33,0.09,3.81,1.4,3.95,3.43C596.58,489.82,595.4,491.63,593.05,491.72z
		 M610.06,495.99c-0.77,0.21-1.83,0.48-2.45-0.49c-0.36-0.56-0.14-1.59-0.98-1.7c-1.23-0.16-2.5-0.16-3.73-0.03
		c-0.92,0.1-0.64,1.22-1.1,1.77c-0.27,0.32-0.57,0.45-0.88,0.49c-0.84,0.28-1.92,0.35-2.09-0.04c-0.38-0.89,0.22-1.63,0.87-2.24l0,0
		c1.16-2.85,2.37-5.68,3.45-8.55c0.34-0.91,0.88-1.05,1.7-1.04c0.83,0.01,1.23,0.39,1.53,1.15c1.2,3.1,2.47,6.17,3.7,9.26
		C610.26,495.02,611.02,495.73,610.06,495.99z M615.47,496.1c-0.94-0.02-1.5-0.18-1.48-1.32c0.05-3.1,0.04-6.19,0-9.29
		c-0.01-1.08,0.49-1.36,1.47-1.37c1.04-0.01,1.42,0.4,1.39,1.43c-0.05,1.55-0.01,3.1-0.01,4.64c0,1.5-0.05,3,0.02,4.49
		C616.89,495.73,616.53,496.13,615.47,496.1z M629.86,496.03c-0.88,0.08-1.91,0.39-2.51-0.75c-1.01-1.92-2.08-3.81-3.13-5.71
		c-0.12,0.02-0.24,0.04-0.36,0.06c0,1.62-0.04,3.23,0.01,4.85c0.03,1.06-0.17,1.66-1.46,1.65c-1.29-0.01-1.44-0.6-1.42-1.67
		c0.06-2.84,0-5.69,0.03-8.53c0.01-0.63-0.34-1.54,0.69-1.7c1.03-0.16,2.07-0.28,2.68,0.98c0.71,1.47,1.57,2.88,2.34,4.32
		c0.24,0.44,0.44,0.89,1.11,1.35c0-1.87,0.03-3.57-0.01-5.27c-0.03-0.96,0.17-1.47,1.3-1.47c1.14,0,1.31,0.53,1.3,1.47
		c-0.04,2.99-0.01,5.99-0.04,8.98C630.39,495.1,630.77,495.94,629.86,496.03z M629.79,411.22c-4.9,1.38-9.94-0.61-12.03-4.54
		c-1.1-2.08-1.06-2.03-2.94-0.46c-1.49,1.25-2.32,3.11-4,4.17c-1.35,1.02-2.93,0.5-3.86-1.33c-0.38-0.75-0.61-1.57-0.74-2.41
		c-0.06-0.37-0.05-0.89-0.54-0.95c-0.45-0.06-0.44,0.45-0.6,0.73c-2.63,4.68-5.46,9.23-8.65,13.55c-1.04,2.09-3.24,3.39-5.13,3.04
		c-1.59-0.29-3.01-2.24-3.36-4.33c-0.62-3.74,0.49-7.07,2.17-10.32c1.08-2.08,2.27-4.09,3.64-5.99c0.26-0.36,0.63-0.71,0.28-1.2
		c-0.38-0.53-0.78-0.14-1.19,0c-1.31,0.44-2.34,1.3-3.36,2.17c-0.87,0.74-1.71,1.51-2.57,2.27l0,0c-1.28,1.47-2.72,2.78-4.35,3.83
		c-3.18,2.05-7.17-0.03-7.4-3.86c-0.09-1.54-0.02-3.09-0.04-4.63c0-0.27,0.13-0.7-0.25-0.73c-0.18-0.02-0.4,0.37-0.61,0.58l0,0
		c-0.65,1.07-0.96,2.33-1.85,3.26c-1.32,2.48-2.64,4.97-3.96,7.45l0,0l0,0l0,0.01c-0.12,0.26-0.13,0.61-0.32,0.82
		c-0.84,2.16-1.72,4.3-3.23,6.12c-2.05,3.63-3.86,7.4-6.39,10.75c-0.18,0.24-0.33,0.5-0.51,0.74c-2.89,3.91-5.3,4.41-9.59,1.99l0,0
		l0,0c-2.09-0.86-2.8-2.75-3.26-4.69c-1.08-4.55-0.32-9.01,0.89-13.43c0.73-2.66,1.46-5.31,2.27-8.28c-1.76,1.46-2.92,3-4.15,4.49
		l0,0l0,0c-0.07,0.79-0.73,1.08-1.25,1.49c-0.54,0.65-0.97,1.39-1.68,1.89c-1.3,1.79-2.59,3.58-3.89,5.37h0
		c-0.93,1.48-1.86,2.96-2.78,4.44l0,0c-0.92,2.39-2.49,4.41-3.86,6.54c-1.42,2.22-2.99,4.36-4.52,6.51
		c-0.31,0.44-0.67,0.88-1.23,1.05l0,0c-1.35,1.47-2.71,2.92-4.04,4.41c-0.74,0.83-1.55,1.56-2.45,2.19
		c-3.67,2.58-7.14,1.03-7.58-3.44c-0.14-1.38-0.1-2.8,0.06-4.18c0.8-6.84,2.16-13.59,3.87-20.26c0.21-0.82,0.55-1.6,0.84-2.4
		c2.62-9.49,6.88-18.05,14.25-24.79c4.59-4.2,9.85-7.27,16.04-8.51c2.35-0.47,4.7-0.39,6.95,0.4c2.15,0.75,3.43,2.49,4.41,4.46
		c0.72,1.45,0.75,1.45,1.64,0.15c0.79-1.15,1.55-2.32,2.33-3.49c1.22-1.83,1.76-1.87,3.31-0.29c1.33,1.27,0.42,2.67,0,3.83
		c-1.65,4.54-4.27,8.5-7.75,11.87c-1.13,1.1-1.92,2.39-2.6,3.78c-0.28,0.57,0.01,0.57,0.42,0.56c-0.12,0.13-0.15,0.22-0.15,0.29
		c0.03-0.08,0.07-0.18,0.15-0.29c0.58-0.69,1.4-1.01,2.16-1.43c0.1-0.1,0.21-0.19,0.31-0.29c0.51-0.71,1.16-1.18,2.06-1.25
		c1.21-0.7,2.41-1.39,3.62-2.09c0.35-0.29,0.67-0.66,1.19-0.62c0.21-0.32,0.5-0.54,0.88-0.61l0,0c0.21-0.19,0.43-0.37,0.64-0.56
		c1.5-0.79,3-1.58,4.51-2.37l0,0c0.4-0.2,0.81-0.39,1.21-0.59c0.84-0.36,1.42-1.16,2.37-1.32l0,0c0.39-0.69,1.12-0.73,1.74-1.02
		c-0.27,1.13-1.05,1.68-2.03,2.01c-0.26,0.48-0.84,0.54-1.21,0.88l0,0c-0.6,0.29-1.19,0.57-1.79,0.86l0,0
		c-1.32,0.7-2.63,1.4-3.95,2.1l0,0c-0.3,0.1-0.6,0.2-0.9,0.29c-0.28,0.32-0.57,0.63-0.85,0.95c-1.42,1.81-3.67,2.31-5.49,3.5
		c-0.69,0.45-1.46,0.86-2.32,0.98c-0.44,0.63-1.19,0.81-1.77,1.24c-0.52,0.49-1.18,0.22-1.76,0.35c-1.5,3.47-2.91,7-3.77,10.68
		c-1.05,4.54-2.41,9.09-1.12,13.84c0.17,0.64,0.39,1.24,0.78,1.76c1.42,1.91,3.35,2.03,4.88,0.22c2.16-2.55,3.9-5.4,5.59-8.29
		c0.9-1.54,1.55-3.24,2.85-4.52c0.89-1.7,1.58-3.51,2.68-5.09c0.68-1.76,1.44-3.48,2.42-5.09l0,0c0.03-0.48,0.34-0.83,0.57-1.22l0,0
		c1.17-3.08,3.05-5.79,4.69-8.61c0.24-0.41,0.48-0.89,1.07-0.94c0.48-0.57,0.92-1.19,1.45-1.71c0.62-0.6,1.18-1.56,2.24-1.08
		c1.11,0.49,1.77,1.37,1.81,2.69c0.05,1.87-0.6,3.63-0.8,5.47c-0.14,1.25-0.28,2.48-0.15,3.72c0.07,0.71-0.19,1.61,0.69,1.98
		c0.75,0.32,1.31-0.29,1.89-0.66c1.98-1.27,3.54-3.06,5.45-4.43c1.54-1.94,3.55-3.15,5.92-3.76c1.16-0.3,2.29-0.21,3.21,0.7
		c0.69,0.68,1.23,0.44,1.73-0.22c0.24-0.32,0.49-0.63,0.74-0.94c0.61-0.79,1.34-1.16,2.35-0.76c0.96,0.38,1.44,1.13,1.37,2.1
		c-0.13,1.86-0.69,3.6-1.75,5.16c-0.38,0.56-0.89,0.74-1.54,0.71c-0.69-0.03-1.39-0.15-2.07,0.07c-0.17,1.27-1.21,2.02-1.82,3.03
		c-0.52,1.06-1.04,2.12-1.56,3.18l0,0c-0.53,1.74-1.24,3.42-1.49,5.24c-0.06,0.44-0.19,0.88-0.2,1.32
		c-0.01,0.48-0.16,1.07,0.33,1.37c0.51,0.31,0.75-0.31,1.12-0.49c0.17-0.09,0.37-0.14,0.55-0.21l0,0l0,0
		c0.11-0.1,0.21-0.2,0.32-0.29c0.07-0.58,0.42-0.94,0.93-1.17c0.03-0.61,0.35-0.99,0.91-1.2c1.87-2.65,3.8-5.26,5.38-8.11l0,0l0,0
		c0.11-0.86,0.58-1.53,1.12-2.17l0,0c1.56-3.16,3.42-6.18,4.61-9.53h0c1-3.08,1.59-6.31,3.56-9.01c1.77-3.86,4.37-7.24,6.4-10.95
		c0.56-1.03,1.33-0.91,2.04-0.1c0.82,0.96,1.06,1.99,0.43,3.17c-1.53,2.86-3.08,5.7-4.52,8.6c-1.87,3.78-3.99,7.47-4.93,11.64
		c-0.45,1.99-0.59,4.04-0.52,6.09c0.03,0.72,0.18,1.26,1.06,0.69l0,0c0.91-1.09,1.91-2.09,3.04-2.95c0.48-0.35,0.94-0.72,1.44-1.03
		c2.47-1.54,3.39-1.32,4.92,1.15c0.16,0.25,0.34,0.51,0.41,0.79c0.17,0.71,0.4,1.3,0.68,1.8c0.35,0.55,0.77,1.01,1.24,1.41
		c1.42,1.02,3.41,1.08,5.68,0.88c0.49-0.04,0.98-0.16,1.47-0.24l0.23-0.08c2.27-0.71,3.25-2.64,4.37-4.54
		c1.06-1.8,2.28-3.61,4.47-4.32l0,0c0.63-1.04,1.69-1.52,2.73-1.95c0.72-0.3,1.64-0.45,2.21,0.29c0.66,0.85,1.33,1.77,0.75,2.99
		c-0.96,2.02-2.44,3.6-4.15,4.99c-1.23,1.08-2.41,2.24-3.7,3.23c-1.27,0.98-1.14,2.22-0.88,3.5c0.26,1.3,0.96,2.27,2.33,2.61
		c2.49,0.63,4.8-0.12,7.11-0.89c2.03-0.68,3.97-1.54,5.85-2.57l0,0c0.18-0.17,0.33-0.42,0.54-0.5c0.55-0.21,1.01-1.23,1.61-0.6
		c0.56,0.59,0.36,1.54-0.18,2.2c-1.12,1.35-2.47,2.46-4,3.3c-2.77,1.53-5.41,3.41-8.8,3.3c-1.5-0.05-2.98-0.17-4.17-1.26v0
		c-1.76-1.1-2.93-2.67-3.52-4.63C631.51,411.28,631.19,410.83,629.79,411.22z M646.76,490.12c0-1.6,0.03-3.19-0.01-4.79
		c-0.03-1.08,0.6-1.19,1.45-1.2c0.87-0.01,1.42,0.16,1.41,1.22c-0.04,3.19-0.04,6.38,0,9.58c0.01,1.11-0.63,1.16-1.46,1.16
		c-0.84,0-1.46-0.06-1.41-1.18C646.81,493.32,646.76,491.72,646.76,490.12z M639.95,494.78c0.04,1.11-0.49,1.31-1.46,1.33
		c-1,0.02-1.32-0.33-1.26-1.3c0.07-1.14,0.02-2.29,0.02-3.44c0-1.1-0.08-2.2,0.02-3.29c0.12-1.23-0.38-1.58-1.53-1.49
		c-0.6,0.04-1.34,0.28-1.79-0.39c-0.62-0.92-0.03-2.04,1.1-2.05c2.34-0.03,4.69,0.01,7.03-0.03c0.9-0.02,1.25,0.31,1.23,1.22
		c-0.02,0.84-0.25,1.26-1.2,1.29c-2.19,0.05-2.19,0.1-2.19,2.31C639.92,490.9,639.88,492.84,639.95,494.78z M659.71,587.36
		c-0.94,0.52-1.75,1.39-2.99,1.14l0,0l0,0c-0.81-0.1-1.35,0.61-2.11,0.67l0,0c-0.38,0.43-0.91,0.86-1.31,0.27
		c-0.38-0.57,0.26-0.92,0.73-1.18c1.43,0.02,2.49-1.15,3.9-1.18c0.29-0.12,0.57-0.23,0.86-0.35c1.05-0.44,2.04-1.06,3.46-1.2
		C661.49,586.52,660.6,586.94,659.71,587.36z M662.67,580.66c-1.36,0.78-2.59,1.8-4.16,2.19c-0.16,0.19-0.33,0.34-0.6,0.29
		c-0.4,0.22-0.7,0.63-1.21,0.61c-4.82,2.63-9.9,4.64-15.06,6.47c1.23-1.32,2.8-2.02,4.33-2.76c2.81-1.36,5.56-2.85,8.57-3.76l0,0
		c0.35-0.36,0.72-0.65,1.26-0.58c0.78-0.64,1.75-0.85,2.65-1.24c1.26-0.73,2.52-1.44,3.94-1.8h0c0.55-0.67,1.36-0.77,2.12-1.02
		C664.17,579.96,663.47,580.37,662.67,580.66z M663.51,346.03c-0.22-0.68,0.51-0.82,0.97-1.08c0.94-0.53,1.84-1.18,2.82-1.61
		c0.53-0.23,1.35-0.58,1.75,0.13c0.36,0.64-0.15,1.21-0.63,1.66c-0.98,0.91-2.12,1.43-3.67,1.42
		C664.41,346.51,663.7,346.6,663.51,346.03z M667.68,578.22c-0.38-0.11-0.87,0.71-1.1-0.07c-0.15-0.5-0.14-1.08,0.34-1.52
		c0.67-0.62,1.51-0.93,2.3-1.35c2.41-1.26,4.91-2.3,7.84-3.35c-0.67,1.07-1.36,1.46-2.04,1.85c-0.25,0.14-0.62,0.09-0.78,0.39
		c-0.95,1.87-2.73,2.53-4.58,2.97C668.86,577.35,668.66,578.51,667.68,578.22z M670.86,492.57c1.06,1.2,3.24,1.47,4.5,0.56
		c0.38-0.27,0.79-0.58,0.71-1.06c-0.12-0.64-0.72-0.37-1.12-0.39c-0.72-0.03-1.4,0.06-1.42-1.03c-0.03-1.18,0.69-1.12,1.48-1.09
		c0.5,0.02,1,0,1.5,0c0.2,0,0.4,0,0.6,0c2.6-0.02,2.8,0.27,1.86,2.7c-1.09,2.81-4.2,4.44-7.19,3.76c-2.59-0.59-4.84-3.71-4.63-6.43
		c0.17-2.3,2.36-4.91,4.52-5.39c2.83-0.63,5.53,0.48,6.84,2.72c0.53,0.91,0.44,1.23-0.66,1.25c-0.95,0.01-1.67-0.22-2.4-0.91
		c-1.16-1.11-3.44-0.91-4.52,0.23C669.69,488.78,669.66,491.21,670.86,492.57z M680.37,579.24c-0.86,0.62-1.91,0.78-2.88,1.14
		c-0.26,0.1-0.63,0.08-0.73-0.31c-0.08-0.29,0.17-0.41,0.38-0.56c0.91-0.65,2.04-0.73,3.03-1.15c0.27-0.11,0.6,0.03,0.58,0.55
		C680.66,579,680.52,579.13,680.37,579.24z M692.51,571.28c-1.14,0.61-2.3,1.18-3.48,1.71c-3.93,1.79-7.83,3.63-11.91,5.06
		c-0.34,0.57-0.91,0.59-1.48,0.63c-1.65,1.03-3.52,1.44-5.37,1.92c1.54-1.41,3.34-2.3,5.33-2.87c0.64-0.72,1.47-1.07,2.41-1.19
		c4.14-2.17,8.44-3.98,12.77-5.74c0.41-0.17,0.81-0.44,1.24-0.5c0.49-0.06,1.1-0.77,1.44-0.09
		C693.82,570.94,692.94,571.05,692.51,571.28z M682.67,497.15c0.2-0.82,0.41-1.64,0.55-2.47c0.16-0.93,0.68-1.28,1.51-1.11
		c1.13-0.07,1.49,0.21,0.85,1.27c-0.54,0.89-0.98,1.85-1.33,2.82c-0.28,0.76-0.78,0.89-1.4,0.71
		C682.05,498.12,682.57,497.59,682.67,497.15z M701.73,491.34c-0.3,0.03-0.6,0.04-0.9,0c-1.16-0.16-1.69,0.28-1.52,1.5
		c0.08,0.54-0.03,1.1,0.02,1.65c0.1,1.09-0.18,1.63-1.45,1.63c-1.34,0-1.41-0.67-1.4-1.7c0.04-2.95,0.06-5.89,0-8.84
		c-0.02-1.16,0.46-1.45,1.52-1.45c1.1,0,1.4,0.5,1.33,1.48c-0.04,0.5,0.05,1.01-0.02,1.5c-0.22,1.49,0.43,1.89,1.85,1.81
		c1.93-0.11,1.93-0.02,1.94-2.04c0-0.55,0.02-1.1,0-1.65c-0.04-1.15,0.77-1.06,1.53-1.09c0.84-0.04,1.31,0.19,1.28,1.16
		c-0.05,1.65-0.01,3.3-0.02,4.94c0,1.6-0.04,3.2,0.01,4.79c0.03,0.92-0.42,1.12-1.2,1.04c-0.71-0.06-1.61,0.21-1.61-0.99
		c0-0.8-0.06-1.6,0.01-2.4C703.21,491.62,702.76,491.22,701.73,491.34z M703.03,568.86c0.68-0.42,1.2-0.92,1.97-0.99
		c0.56-0.43,1.11-0.86,1.67-1.29c0.45-0.76,1.14-1.12,2-1.08c1.43,0.07,2.78-0.74,4.28-0.44
		C712.11,566.43,704.56,569.35,703.03,568.86z M719.4,494.95c-0.11,0.4-0.4,0.58-0.79,0.65c-1.91,1.29-5.79,0.72-7.03-1.54
		c-1.99-2.33-2.28-4.6-0.88-6.83c1.69-2.69,4.3-3.87,7.11-2.95c2.33,0.76,3.85,2.54,4.28,4.94
		C722.53,491.65,721.41,493.56,719.4,494.95z M739.81,496.17c-0.61-0.07-1.3,0.27-1.81-0.33c-0.45-2.33-0.62-4.71-1.42-7.42
		c-0.74,2.53-1.44,4.62-1.95,6.76c-0.27,1.15-1.04,0.83-1.73,0.88c-0.77,0.05-1.26-0.13-1.48-1.06c-0.49-2.12-1.17-4.19-2.02-6.27
		c-0.4,2.1-0.79,4.21-1.22,6.31c-0.19,0.91-2,1.47-2.74,0.9c-0.31-0.24-0.2-0.51-0.14-0.8c0.67-3.32,1.39-6.63,1.98-9.96
		c0.2-1.11,0.85-1.06,1.61-1.02c0.85,0.05,1.8-0.24,2.12,1.07c0.54,2.16,1.23,4.29,1.97,6.8c1.03-2.15,1.3-4.2,2-6.09l0,0l0,0
		c-0.19-1.33,0.43-1.92,1.73-2.02c1.27-0.09,2.23,0.08,2.49,1.61c0.53,3.07,1.16,6.12,1.77,9.18
		C741.17,495.69,740.96,496.31,739.81,496.17z M749.87,496.09c-1.44-0.04-2.89-0.06-4.34,0.01c-1,0.04-1.3-0.35-1.26-1.31
		c0.06-1.54,0.02-3.09,0.02-4.64c0-1.65,0.02-3.29-0.01-4.94c-0.01-0.76,0.28-1.08,1.06-1.07c1.54,0.03,3.09,0.02,4.64,0
		c0.89-0.02,1.26,0.36,1.23,1.26c-0.03,0.88-0.43,1.26-1.3,1.22c-0.65-0.03-1.3,0.01-1.94-0.01c-0.72-0.02-1.13,0.21-1.09,1.02
		c0.03,0.72,0.1,1.31,1.04,1.26c0.55-0.03,1.1,0.02,1.64-0.01c0.83-0.04,1.43,0.03,1.43,1.15c0,1.09-0.44,1.42-1.43,1.32
		c-0.49-0.05-1,0.01-1.49-0.01c-0.73-0.03-1.23,0.05-1.21,1.02c0.02,0.9,0.29,1.29,1.21,1.22c0.59-0.05,1.2,0.02,1.79-0.02
		c0.92-0.06,1.37,0.24,1.38,1.26C751.25,495.84,750.79,496.12,749.87,496.09z M757.57,494.82c-0.58,0.97-0.96,2.05-1.44,3.08
		c-0.3,0.65-0.86,0.63-1.39,0.45c-0.67-0.24-0.27-0.7-0.17-1.11c0.21-0.81,0.38-1.64,0.55-2.46c0.19-0.92,0.66-1.43,1.57-1.22
		C757.8,493.51,758.23,493.73,757.57,494.82z M778.72,495.82c-0.22,0.48-0.81,0.18-1.35,0.29c-0.33-0.05-1.01,0.04-1.16-0.21
		c-0.92-1.44-1.72-0.59-2.68-0.06c-1.55,0.85-3.62,0.2-4.74-1.36c-0.95-1.31-0.77-3.17,0.52-4.43c0.66-0.65,1.06-1.14,0.48-2.15
		c-0.72-1.27-0.15-2.78,1.08-3.5c1.16-0.67,3.05-0.43,3.89,0.5c1.02,1.13,1.07,2.41-0.11,3.57c-0.88,0.86-0.53,1.42,0.08,2.12
		c0.35,0.4,0.67,0.66,1.07,0.13c0.44-0.6,0.87-0.77,1.45-0.16c0.48,0.5,0.9,0.95,0.26,1.64c-1.04,1.11,0.06,1.76,0.58,2.55
		C778.32,495.1,778.93,495.34,778.72,495.82z M798.73,491.22c-0.69,2.61-2.85,4.59-5.28,4.83c-4.11,0.41-4.11,0.41-4.11-3.65
		c0-0.8,0-1.59,0-2.39c0-1.54,0.03-3.09-0.01-4.63c-0.02-0.87,0.26-1.29,1.21-1.23c1.95,0.13,3.95-0.3,5.72,1.08
		C798.06,486.64,799.26,489.22,798.73,491.22z M794.44,419.63c-2.37-0.95-3.58-2.86-3.24-5.39c0.28-2.07,0.63-4.12,1.4-6.08
		c0.11-0.27,0.19-0.57,0.22-0.86c0.04-0.38,0.23-0.85-0.16-1.12c-0.39-0.27-0.73,0.07-1.09,0.24c-1.52,0.73-2.58,2.01-3.79,3.09
		c-0.37,0.33-0.63,0.78-1.17,0.87c-3.33,3.51-6.34,7.32-9.9,10.62c-0.69,0.64-1.36,1.44-2.47,0.96c-1.17-0.5-1.7-1.41-1.77-2.7
		c-0.07-1.16,0.28-2.34-0.18-3.85c-0.5,1.42-1.22,1.83-2.46,1.63c-0.94-0.15-1.43,0.82-1.92,1.48c-1.85,2.48-3.82,4.86-5.91,7.13
		c-1.12,1.56-2.62,2.72-4.13,3.85c-1.18,0.89-2.38,0.7-3.67-0.37c-2.13-1.77-2.91-4.83-2.05-7.78c0.86-2.96,2.32-5.61,3.96-8.18
		c0.18-0.28,0.5-0.51,0.41-1.04c-0.89,0-1.55,0.53-2.25,0.93c-2.41,1.38-4.29,3.06-5.46,5.82c-2.18,5.18-4.92,10.13-6.87,15.42
		c-0.59,1.59-1.04,3.22-1.55,4.83c-1.34,4.78-2.58,9.59-4.65,14.12c-0.03,0.1-0.06,0.19-0.13,0.29c-2.49,5.46-5.48,10.6-9.56,15.05
		l0,0c-0.87,1.47-2.11,2.52-3.64,3.24c-1.62,1.31-3.37,2.2-5.55,2.22c-3.1,0.03-5.19-1.41-6.6-4.04c-2.33-4.37-2.05-8.92-0.81-13.49
		c0.65-2.39,1.43-4.76,2.72-6.92l0,0c0.98-2.04,1.85-4.16,3.65-5.68c3.16-4.39,6.83-8.33,10.77-12c4.27-3.97,8.2-8.31,12.75-11.97
		c2.09-1.68,4.24-3.31,6.43-4.87c1.1-0.79,1.88-1.74,2.32-3.01c0.43-1.27,0.92-2.52,1.38-3.78c0.1-0.28,0.25-0.6-0.04-0.82
		c-0.24-0.17-0.46,0.03-0.65,0.2c-1.31,1.26-2.97,1.99-4.47,2.96c-1.56,1-2.97,2.18-4.18,3.59c-1.01,1.94-2.79,3.19-4.29,4.68
		c-0.63,0.62-1.34,1.21-2.11,1.65c-2.72,1.55-5.84,0.02-7.03-3.37c-0.11-0.31,0.03-0.72-0.51-0.99c-1.68,2.49-3.77,4.65-5.86,6.82
		c-1.33,1.38-2.58,2.89-4.51,3.51c-1.99,1.1-3.93,2.11-6.35,1.02c-2.65-1.19-3.37-3.52-3.52-5.97c-0.26-4.15,0.98-8.08,2.44-11.93
		c1.56-4.11,3.95-7.84,5.51-11.94c0.36-0.94,1.45-1.88,0.44-2.96c-0.65-0.69-3.41-0.6-4.28,0.1c-1.28,1.03-2.46,2.18-3.73,3.24
		c-4.43,3.71-8.71,7.64-13.89,10.36c-1.11,0.58-2.22,1.1-3.56,0.72c-1.59-0.45-2.46-1.43-2.46-3.23c-0.89,0.45-1.27,1.13-1.55,1.77
		c-2.73,6.18-6.35,11.86-9.61,17.75c-1.05,1.9-2.16,3.78-2.04,6.14c0.07,1.34-0.9,1.99-2.18,1.83c-1.28-0.16-1.84-0.92-1.5-2.4
		c0.52-2.3,1.37-4.5,2.57-6.52c5.43-9.14,10.21-18.63,15.03-28.09c0.14-0.27,0.3-0.52,0.45-0.78l0,0c0.99-2.68,2.39-5.17,3.44-7.89
		c-2.04,1.15-3.96,2.41-6.01,3.45c-3.86,1.95-7.84,3.22-12.22,2.04c-2.84-0.76-5.12-2.17-5.98-5.22c-0.17-0.61-0.19-1.15,0.09-1.73
		c0.27-0.56,0.52-1.17,1.23-1.13c0.75,0.05,0.85,0.71,0.94,1.33c0.17,1.2,0.85,2.1,1.78,2.82l0,0c3.25,0.99,6.44,1.01,9.58-0.46
		c0.34-0.16,0.78-0.08,1.18-0.11c3.66-1.32,6.74-3.59,9.73-6.01c0.67-0.54,1.13-0.99,0.45-1.96c-0.67-0.96-0.2-2.05,0.34-2.95
		c1.79-2.97,4.48-5.03,7.3-6.93c2.63-1.77,5.57-2.85,8.59-3.74c1.17-1.02,2.71-0.94,4.07-1.1c2.67-0.3,5.39-0.3,8.02,0.5
		c0.75,0.23,1.55,0.43,2.02,1.17l0.01,0c1.54,0.4,3.59,3.02,3.5,4.68c-0.15,2.66-1.49,4.8-3.21,6.73
		c-2.39,3.42-4.68,6.93-7.45,10.08c-1.55,1.77-1.55,1.77,0.56,2.8c1.76,0.96,2.61,2.67,2.31,4.55c-0.34,2.16-1.41,4.02-2.38,5.92
		c-2.13,4.16-4.33,8.3-5.69,12.8c-0.74,2.45-1.31,4.95-0.62,7.49c0.57,2.07,1.66,2.42,3.57,1.38c0.73-0.4,1.31-1.08,2.18-1.24
		c5.13-3.98,8.85-9.19,12.61-14.37c1.48-3.02,3.5-5.75,4.91-8.81c0.35-0.75,1.09-1.21,1.84-0.67c0.89,0.64,1.69,1.56,1.16,2.78
		c-0.55,1.27-1.3,2.45-1.96,3.68h0c-0.5,1.88-1.69,3.44-2.37,5.24c-0.43,1.12-0.71,2.25-0.94,3.41c-0.18,0.89-0.36,1.87,0.3,2.55
		c0.73,0.75,1.41-0.36,2.17-0.37c2.16-1.33,3.73-3.3,5.42-5.12c2.37-2.56,5.36-4.28,8.13-6.32c1.72-1.27,3.54-2.44,4.91-4.13
		c0.42-0.51,0.9-0.99,1.65-0.75c0.81,0.26,1.38,0.82,1.6,1.65c0.2,0.79,0.08,1.57-0.19,2.35c-0.55,1.6-1.03,3.22-1.54,4.84
		c-0.1,0.33-0.3,0.69,0.06,0.96c0.29,0.22,0.56-0.01,0.82-0.16c4.83-2.77,9.89-5.15,13.79-9.35c2.22-2.39,4.47-1.6,5.34,1.53
		c0.47,1.69,1.87,2.81,3,4.01c2.29,2.43,2.55,3.19,1.31,6.3c-0.31,0.78-0.57,1.6-0.8,2.41c-0.09,0.32-0.19,0.75,0.17,0.96
		c0.39,0.23,0.61-0.17,0.87-0.38c2.3-1.83,4.22-4.08,6.42-6.02c2.11-2.82,4.67-5.17,7.71-6.93c2.7-1.56,5.32,0.03,5.4,3.17
		c0.05,1.62-0.37,3.15-0.8,4.69c-0.36,1.29-0.6,2.61-0.91,3.92c-0.3,1.28,0.27,1.89,1.48,2.27c6.24,1.91,12.65,2.64,19.15,2.85
		c0.45,0.01,0.9,0.02,1.34,0.08c0.75,0.1,1.72-0.09,1.9,1.02c0.17,1.03-0.48,1.55-1.37,1.85c-0.33,0.57-0.88,0.58-1.43,0.58
		c-3.32,0-6.64,0-9.96-0.01c-0.65,0-1.29-0.1-1.8-0.56l0,0c-1.91,0.09-3.71-0.3-5.4-1.19C797.4,420.45,795.88,420.2,794.44,419.63z
		 M808.28,496.09c-0.75-0.04-1.5-0.01-2.24-0.01c-3.23,0-3.23,0-3.23-3.18c0-2.44,0.05-4.89-0.02-7.33
		c-0.03-1.14,0.38-1.49,1.47-1.43c1.44,0.07,2.89,0.03,4.34,0.02c0.82-0.01,1.18,0.39,1.14,1.2c-0.04,0.74-0.27,1.26-1.13,1.25
		c-0.65-0.01-1.3,0.02-1.94,0c-0.83-0.03-1.3,0.19-1.28,1.17c0.02,0.99,0.53,1.16,1.34,1.12c0.5-0.03,1,0.03,1.49-0.01
		c0.86-0.07,1.28,0.21,1.28,1.16c0,0.95-0.31,1.41-1.31,1.31c-0.49-0.05-1-0.01-1.5-0.01c-0.72,0-1.33-0.08-1.34,1.05
		c-0.01,1.09,0.45,1.26,1.33,1.2c0.55-0.04,1.1,0,1.64-0.02c0.84-0.03,1.42,0.1,1.43,1.2C809.75,495.91,809.23,496.14,808.28,496.09
		z M820.73,495.9c-1.73,0.49-3.52,0.58-5.24-0.33c-0.66-0.35-1.19-0.79-1.48-1.41c-0.3-0.65-1.12-1.57-0.13-2.06
		c0.76-0.38,1.88-0.37,2.47,0.73c0.67,1.25,1.74,1.56,3.03,1.09c0.5-0.18,1.06-0.34,1.08-1.07c0.02-0.76-0.53-1.08-1.07-1.28
		c-0.89-0.33-1.83-0.48-2.73-0.78c-1.26-0.42-2.4-1.01-2.77-2.45c-0.52-0.5-0.77-1,0.01-1.5c0.5-1.96,1.99-2.65,3.79-2.8
		c1.81-0.15,3.52,0.13,4.63,1.79c0.37,0.55,0.98,1.36,0.23,1.83c-0.63,0.39-1.64,0.53-2.26-0.39c-0.63-0.94-1.52-1.28-2.6-1.02
		c-0.55,0.13-1.09,0.45-1.07,1.08c0.01,0.53,0.46,0.84,0.98,1c1.09,0.33,2.19,0.64,3.28,0.99c1.6,0.52,2.55,1.66,2.51,3.32
		C823.35,494.31,822.27,495.47,820.73,495.9z M828.42,496.1c-0.87,0-1.58-0.04-1.52-1.24c0.07-1.59,0.02-3.19,0.02-4.78
		c0-1.49,0.06-2.99-0.02-4.48c-0.06-1.15,0.45-1.47,1.5-1.47c0.98,0,1.45,0.28,1.44,1.37c-0.05,3.14-0.05,6.28,0,9.41
		C829.85,496.01,829.26,496.1,828.42,496.1z M846.17,490.81c-0.29,2.36-2.88,4.98-5.08,5.29c-3.64,0.51-5.96-1.78-6.91-4.26
		c-0.9-2.34,0.24-5.15,2.46-6.8c2.66-1.97,6.85-0.96,8.43,1.61c0.21,0.34,0.7,0.7,0.39,1.2c-0.29,0.46-0.81,0.27-1.24,0.3
		c-0.8,0.05-1.5-0.09-1.86-0.92c-1.46-0.74-2.92-1-4.32,0.08c-1.26,0.97-1.41,2.32-1.14,3.76c0.43,2.31,2.77,3.17,5.47,2.02
		c0.7-0.92,0.79-1.54-0.68-1.41c-0.86,0.08-1.46-0.07-1.42-1.17c0.04-1.12,0.78-0.94,1.47-0.95c1.15,0,2.3,0.03,3.45,0
		C846.1,489.54,846.27,490.05,846.17,490.81z M856.41,495.25c-0.75-1.56-1.67-3.04-2.51-4.56c-0.23-0.42-0.37-0.92-1.12-1.25
		c0,1.82-0.04,3.53,0.02,5.24c0.03,0.98-0.21,1.43-1.32,1.43c-1.12,0-1.32-0.46-1.31-1.44c0.05-2.99,0-5.99,0.03-8.98
		c0-0.58-0.29-1.46,0.72-1.5c0.84-0.04,1.8-0.36,2.37,0.73c0.92,1.76,1.9,3.49,2.86,5.23c0.09,0.17,0.14,0.38,0.63,0.29
		c0-1.56,0.04-3.18-0.02-4.79c-0.04-1.06,0.27-1.53,1.43-1.53c1.16,0.01,1.44,0.51,1.42,1.55c-0.05,2.94,0,5.89-0.04,8.83
		c-0.01,0.58,0.3,1.47-0.71,1.51C858,496.06,857,496.48,856.41,495.25z M865.83,599c-1.14,1.83-5.88,3.64-7.89,3.01
		c-0.58-0.18-0.79-0.42-0.27-0.91l0,0c1.09-0.84,2.28-1.47,3.64-1.75c1.15-0.74,2.44-1.09,3.73-1.44c0.33-0.09,0.72-0.22,0.96,0.14
		C866.2,598.37,866.02,598.68,865.83,599z M940.05,469.6c-0.81-0.26-1.32-0.9-1.48-1.71c-0.11-0.51,0.33-0.99,0.79-0.83
		c0.84,0.3,1,1.24,1.4,1.86C940.7,469.44,940.43,469.72,940.05,469.6z M767.8,406.13c-2.63,0.5-4.16,2.42-5.81,4.23
		c-1.5,2.3-3,4.6-4.5,6.91c-0.72,1.73-1.43,3.45-2.16,5.17c-0.3,0.72-0.24,1.46-0.16,2.19c0.1,0.9,0.57,1.23,1.43,0.73
		c2.44-2.23,4.65-4.69,6.84-7.16c0.25-0.28,0.49-0.64,0.95-0.64c2.7-2.85,5.25-5.77,4.8-10.12l0.03-0.15
		C769.51,405.97,768.89,405.92,767.8,406.13z M545.72,403.09c2.03-2.25,4.48-4.15,6.35-6.51c2.83-3.58,4.32-6.82,2.33-10.79
		c-0.65-1.29-1.54-2.17-2.97-2.46v0c-6.91-0.37-12.3,3.09-17.57,6.93c-1.94,1.42-3.34,3.39-5.27,4.8c-1.43,1.2-2.37,2.82-3.56,4.22
		c-1.19,2.5-2.61,4.89-3.68,7.46c-2.17,5.19-4,10.47-5.09,16.02c-0.29,1.49-0.44,3.06-1.12,4.47l0,0c-0.35,2.82-0.7,5.63-1.05,8.44
		c-0.19,1.59-0.28,3.19-0.09,4.78c0.18,1.56,0.97,1.87,2.23,0.91c0.94-0.72,1.67-1.7,2.75-2.24c1.81-2.18,3.62-4.36,5.43-6.55
		c1.04-1.92,2.27-3.71,3.57-5.46c0.94-1.26,1.31-2.93,2.72-3.85c0.63-0.96,1.25-1.92,1.89-2.87c2.74-4.04,5.46-8.09,8.59-11.84
		C542.18,406.3,544.14,404.84,545.72,403.09z M715.97,486.7c-1.83,0.03-3.29,1.53-3.27,3.35c0.02,1.87,1.62,3.51,3.39,3.47
		c1.71-0.04,3.28-1.68,3.3-3.44C719.41,488.25,717.82,486.67,715.97,486.7z M793.18,486.69c-0.98-0.12-1.4,0.17-1.29,1.2
		c0.07,0.74,0.01,1.5,0.01,2.25h0.01c0,0.85,0.01,1.7,0,2.55c-0.01,0.63,0.29,0.88,0.92,0.88c1.61-0.01,3.02-1.47,3.09-3.24
		C796.01,488.29,794.92,486.9,793.18,486.69z M771.76,490.95c-0.76,0.24-1.35,0.8-1.35,1.6c0,0.83,0.63,1.29,1.46,1.5
		c0.61-0.25,1.38-0.31,1.66-1.07C773.66,492.65,772.09,490.84,771.76,490.95z M772.42,487.72c0.57-0.01,0.68-0.46,0.73-0.88
		c-0.03-0.51-0.27-0.79-0.75-0.72c-0.49,0.07-0.6,0.46-0.55,0.88C771.89,487.33,771.98,487.72,772.42,487.72z M534.83,491.36
		c0.63,0.08,1.35,0.26,1.88-0.11c0.58-0.41-0.01-1-0.11-1.48c-0.12-0.65-0.47-1.26-0.73-1.91c-0.37,0.36-1.44,2.48-1.47,2.82
		C534.38,491.03,534.47,491.32,534.83,491.36z M604.91,487.79c-0.95,0.72-0.82,1.69-1.25,2.41c-0.2,0.34-0.4,0.85,0.04,1.06
		c0.63,0.3,1.38,0.27,2.02,0c0.55-0.23,0.14-0.69,0.03-1.03C605.5,489.45,605.22,488.68,604.91,487.79z M489.05,486.18
		c-1.41-0.05-0.79,1.07-0.97,1.68c0.09,0.82-0.32,1.87,1.15,1.77c1.11-0.08,1.72-0.66,1.68-1.68
		C490.86,486.87,490.17,486.21,489.05,486.18z M592.08,486.17c-1.37-0.1-0.95,0.93-1.05,1.69c0.16,0.68-0.44,1.8,1.06,1.77
		c1.15-0.02,1.86-0.56,1.83-1.68C593.89,486.86,593.17,486.25,592.08,486.17z M718.53,369.86c-0.1,0-0.2,0-0.3-0.01
		c-5.23-0.24-10.22,0.75-14.93,3.03c-1.22,0.59-2.41,1.21-2.19,2.98c0.09,0.71-0.33,1.44-0.67,2.11c-1.12,2.22-2.11,4.52-3.37,6.66
		c-1.22,2.05-1.83,4.43-3.43,6.27l0,0c-1.07,2.21-2.13,4.41-3.2,6.62c0.13,0.09,0.26,0.19,0.39,0.28c1.3-1.22,2.9-1.9,4.45-2.68
		c3.74-1.87,7.57-3.53,11.8-3.97l0,0c0.87-0.55,2.05-0.41,2.78-1.33c1.02-1.28,2.13-2.5,3.21-3.74c3.2-3.64,5.81-7.69,8.34-11.81
		C722.81,371.15,722.06,370.01,718.53,369.86z M690.44,403.95c-0.25,0.43-0.69,0.88-0.32,1.34c0.43,0.53,0.95,0.03,1.32-0.19
		c2.96-1.75,5.82-3.62,8.41-5.9l0,0c0.92-1.09,1.83-2.18,2.53-3c-1.2,0.22-2.6,1.32-4.27,1.57
		C695.2,399.4,692.21,400.92,690.44,403.95z M741.91,425.37L741.91,425.37L741.91,425.37c-0.08-0.53,0.09-0.94,0.55-1.23
		c0.33-0.67,0.67-1.33,0.99-2.01c0.17-0.35,0.49-0.78,0.14-1.09c-0.41-0.36-0.7,0.17-0.98,0.38c-3.28,2.44-6.33,5.16-9.21,8.05
		c-4.11,4.13-8.39,8.1-12.21,12.5c-2.44,2.81-4.5,5.91-6.35,9.15l0,0l0,0c-0.28,2-1.55,3.61-2.09,5.52
		c-0.92,3.25-1.21,6.51-0.57,9.84l0,0v0l0,0c0.12,0.15,0.18,0.31,0.17,0.46c0.36,0.95,0.79,1.87,1.48,2.63
		c1.73,1.91,2.61,2.04,4.89,0.71c1.51-0.88,2.73-2.13,3.96-3.36c0.38-0.38,0.82-0.7,1.23-1.05l0,0l0,0
		c2.58-2.81,4.48-6.09,6.35-9.38c0.12-0.21,0.3-0.38,0.45-0.57c0.05-0.49,0.16-0.94,0.65-1.18c0.9-2.3,1.8-4.6,2.71-6.9
		c0.82-3.27,1.63-6.53,2.95-9.64c0.29-1.56,0.54-3.14,1.58-4.43c0.01-0.18,0.03-0.37,0.04-0.55
		C739.45,430.48,740.44,427.82,741.91,425.37L741.91,425.37z"/>
</g>
<g id="Layer_2">
	<g>
		<path class="st2" d="M678.42,468.58c0.88,0.01,1.28-0.42,1.26-1.28c-0.02-1.37-1.44-2.49-3.06-2.41
			c-0.82,0.04-1.13,0.56-1.16,1.29C675.4,467.41,676.85,468.57,678.42,468.58z"/>
		<path class="st2" d="M618.12,482.45c-0.59-0.03-0.92,0.51-1.43,0.67l0,0c-0.24,0.04-0.54,0.01-0.69,0.14
			c-0.53,0.47-1.32,0.7-1.47,1.52l0.28,0.26c0.75-0.09,1.4-0.4,1.85-1.03l0,0c0.73-0.37,1.58-0.52,2.16-1.17l0,0
			c0.89-0.24,1.72-0.6,2.44-1.2l0,0c0.89,0,1.04-0.96,1.67-1.29c0.49-0.29,1-0.57,0.96-1.3c-0.74-0.14-1.06,0.51-1.58,0.69l0,0
			c-0.7,0.47-1.41,0.95-2.11,1.42C619.43,481.47,618.69,481.83,618.12,482.45z"/>
		<path class="st2" d="M614.08,481.61c0.42-0.51,1.11-0.8,1.68-1.19c0.36,0.08,0.66-0.07,0.98-0.21c1.91-0.84,2.42-3.22,4.39-4
			c0.21-0.08,0.22-0.34,0.06-0.5c-0.24-0.24-0.57-0.22-0.83-0.09c-0.87,0.46-1.82,0.76-2.57,1.42l0,0c-1.65,1-3.29,1.99-4.94,2.99
			c-0.77,0.46-1.05,1.29-0.56,1.88C612.66,482.35,613.51,482.32,614.08,481.61z"/>
		<path class="st2" d="M686.47,503.24c-0.21,0.08-0.36,0.33-0.54,0.5l0,0c-1.88,1.02-3.82,1.89-5.85,2.57
			c-2.32,0.77-4.63,1.52-7.11,0.89c-1.37-0.35-2.07-1.31-2.33-2.61c-0.26-1.29-0.39-2.52,0.88-3.5c1.3-1,2.47-2.15,3.7-3.23
			c1.7-1.4,3.19-2.97,4.15-4.99c0.58-1.22-0.09-2.14-0.75-2.99c-0.57-0.74-1.49-0.59-2.21-0.29c-1.04,0.43-2.1,0.91-2.73,1.95l0,0
			c-2.19,0.71-3.41,2.52-4.47,4.32c-1.13,1.9-2.1,3.83-4.37,4.54l-0.23,0.08c-0.49,0.08-0.98,0.19-1.47,0.24
			c-2.27,0.2-4.26,0.14-5.68-0.88c-0.46-0.39-0.88-0.86-1.24-1.41c-0.28-0.5-0.52-1.09-0.68-1.8c-0.07-0.28-0.25-0.54-0.41-0.79
			c-1.53-2.47-2.45-2.69-4.92-1.15c-0.5,0.31-0.96,0.69-1.44,1.03c-1.13,0.86-2.13,1.86-3.04,2.95l0,0
			c-0.88,0.57-1.03,0.02-1.06-0.69c-0.07-2.05,0.07-4.1,0.52-6.09c0.94-4.17,3.06-7.86,4.93-11.64c1.44-2.9,3-5.74,4.52-8.6
			c0.63-1.18,0.4-2.21-0.43-3.17c-0.71-0.82-1.47-0.93-2.04,0.1c-2.04,3.71-4.64,7.08-6.4,10.95c-1.97,2.69-2.56,5.93-3.56,9.01h0
			c-1.19,3.35-3.05,6.37-4.61,9.53l0,0c-0.54,0.64-1.02,1.31-1.12,2.17l0,0l0,0c-1.57,2.85-3.51,5.46-5.38,8.11
			c-0.56,0.21-0.88,0.59-0.91,1.2c-0.51,0.23-0.86,0.59-0.93,1.17c-0.11,0.1-0.21,0.2-0.32,0.29l0,0l0,0
			c-0.18,0.07-0.38,0.12-0.55,0.21c-0.37,0.19-0.6,0.81-1.12,0.49c-0.5-0.3-0.35-0.89-0.33-1.37c0.01-0.44,0.14-0.88,0.2-1.32
			c0.25-1.82,0.96-3.5,1.49-5.24l0,0c0.52-1.06,1.04-2.12,1.56-3.18c0.61-1.01,1.65-1.76,1.82-3.03c0.68-0.22,1.38-0.1,2.07-0.07
			c0.65,0.03,1.16-0.16,1.54-0.71c1.06-1.56,1.62-3.3,1.75-5.16c0.07-0.96-0.42-1.71-1.37-2.1c-1-0.4-1.74-0.03-2.35,0.76
			c-0.24,0.32-0.5,0.63-0.74,0.94c-0.5,0.66-1.04,0.9-1.73,0.22c-0.92-0.9-2.05-0.99-3.21-0.7c-2.37,0.61-4.39,1.81-5.92,3.76
			c-1.9,1.37-3.46,3.16-5.45,4.43c-0.58,0.37-1.13,0.98-1.89,0.66c-0.88-0.37-0.62-1.27-0.69-1.98c-0.12-1.25,0.02-2.48,0.15-3.72
			c0.2-1.83,0.85-3.59,0.8-5.47c-0.03-1.32-0.7-2.2-1.81-2.69c-1.06-0.47-1.63,0.48-2.24,1.08c-0.53,0.52-0.97,1.14-1.45,1.71
			c-0.59,0.04-0.84,0.53-1.07,0.94c-1.65,2.83-3.52,5.53-4.69,8.61l0,0c-0.24,0.38-0.54,0.74-0.57,1.22l0,0
			c-0.98,1.62-1.74,3.34-2.42,5.09c-1.1,1.59-1.79,3.39-2.68,5.09c-1.3,1.28-1.95,2.98-2.85,4.52c-1.69,2.88-3.42,5.73-5.59,8.29
			c-1.54,1.81-3.46,1.68-4.88-0.22c-0.39-0.52-0.61-1.12-0.78-1.76c-1.29-4.75,0.07-9.3,1.12-13.84c0.85-3.68,2.27-7.2,3.77-10.68
			c0.59-0.13,1.25,0.14,1.76-0.35c0.58-0.43,1.33-0.61,1.77-1.24c0.86-0.12,1.62-0.52,2.32-0.98c1.82-1.19,4.07-1.69,5.49-3.5
			c0.28-0.32,0.57-0.63,0.85-0.95c0.3-0.1,0.6-0.2,0.9-0.29l0,0c1.32-0.7,2.63-1.4,3.95-2.1l0,0c0.6-0.29,1.19-0.57,1.79-0.86l0,0
			c0.37-0.34,0.94-0.4,1.21-0.88c0.98-0.33,1.76-0.88,2.03-2.01c-0.62,0.29-1.35,0.33-1.74,1.02l0,0c-0.94,0.16-1.53,0.96-2.37,1.32
			c-0.4,0.2-0.81,0.39-1.21,0.59l0,0c-1.5,0.79-3,1.58-4.51,2.37c-0.21,0.19-0.43,0.37-0.64,0.56l0,0
			c-0.38,0.07-0.67,0.29-0.88,0.61c-0.53-0.04-0.84,0.32-1.19,0.62c-1.21,0.7-2.41,1.39-3.62,2.09c-0.9,0.07-1.55,0.53-2.06,1.25
			c-0.1,0.1-0.21,0.19-0.31,0.29c-0.76,0.42-1.58,0.74-2.16,1.43c-0.08,0.11-0.13,0.21-0.15,0.29c0-0.07,0.04-0.16,0.15-0.29
			c-0.4,0.01-0.7,0.02-0.42-0.56c0.69-1.39,1.47-2.68,2.6-3.78c3.48-3.36,6.1-7.33,7.75-11.87c0.42-1.16,1.33-2.56,0-3.83
			c-1.55-1.58-2.1-1.54-3.31,0.29c-0.78,1.16-1.54,2.33-2.33,3.49c-0.9,1.31-0.92,1.3-1.64-0.15c-0.98-1.97-2.26-3.71-4.41-4.46
			c-2.25-0.79-4.6-0.86-6.95-0.4c-6.19,1.24-11.44,4.31-16.04,8.51c-7.37,6.74-11.63,15.3-14.25,24.79c-0.28,0.8-0.63,1.58-0.84,2.4
			c-1.71,6.67-3.07,13.41-3.87,20.26c-0.16,1.38-0.2,2.8-0.06,4.18c0.44,4.47,3.91,6.02,7.58,3.44c0.9-0.63,1.71-1.36,2.45-2.19
			c1.33-1.49,2.69-2.94,4.04-4.41l0,0c0.57-0.17,0.92-0.62,1.23-1.05c1.53-2.15,3.1-4.29,4.52-6.51c1.36-2.13,2.94-4.14,3.86-6.54
			l0,0c0.93-1.48,1.86-2.96,2.78-4.44h0c1.3-1.79,2.59-3.58,3.89-5.37c0.71-0.49,1.14-1.24,1.68-1.89c0.52-0.41,1.18-0.7,1.25-1.49
			l0,0l0,0c1.22-1.49,2.38-3.04,4.15-4.49c-0.81,2.96-1.54,5.62-2.27,8.28c-1.22,4.42-1.97,8.88-0.89,13.43
			c0.46,1.94,1.17,3.83,3.26,4.69l0,0l0,0c4.29,2.42,6.69,1.92,9.59-1.99c0.18-0.24,0.33-0.5,0.51-0.74
			c2.53-3.35,4.34-7.12,6.39-10.75c1.52-1.81,2.39-3.96,3.23-6.12c0.19-0.2,0.2-0.56,0.32-0.82l0-0.01l0,0l0,0
			c1.32-2.48,2.64-4.97,3.96-7.45c0.89-0.93,1.2-2.19,1.85-3.26l0,0c0.2-0.21,0.43-0.6,0.61-0.58c0.38,0.04,0.25,0.46,0.25,0.73
			c0.01,1.54-0.06,3.09,0.04,4.63c0.23,3.83,4.22,5.91,7.4,3.86c1.63-1.05,3.07-2.36,4.35-3.83l0,0c0.86-0.76,1.7-1.53,2.57-2.27
			c1.02-0.87,2.06-1.73,3.36-2.17c0.41-0.14,0.81-0.53,1.19,0c0.35,0.48-0.02,0.84-0.28,1.2c-1.37,1.9-2.56,3.91-3.64,5.99
			c-1.69,3.25-2.79,6.58-2.17,10.32c0.35,2.09,1.77,4.04,3.36,4.33c1.89,0.35,4.09-0.95,5.13-3.04c3.2-4.32,6.03-8.87,8.65-13.55
			c0.16-0.28,0.15-0.79,0.6-0.73c0.5,0.06,0.49,0.59,0.54,0.95c0.13,0.84,0.36,1.66,0.74,2.41c0.93,1.83,2.51,2.35,3.86,1.33
			c1.68-1.06,2.51-2.92,4-4.17c1.87-1.57,1.83-1.61,2.94,0.46c2.09,3.93,7.13,5.92,12.03,4.54c1.39-0.39,1.72,0.06,2.06,1.19
			c0.59,1.96,1.76,3.53,3.52,4.63v0c1.19,1.09,2.67,1.21,4.17,1.26c3.39,0.12,6.03-1.77,8.8-3.3c1.53-0.84,2.89-1.95,4-3.3
			c0.55-0.66,0.74-1.61,0.18-2.2C687.47,502.01,687.02,503.03,686.47,503.24z M581.27,496.23c-1.58,1.75-3.54,3.21-4.53,5.45
			c-3.13,3.75-5.85,7.8-8.59,11.84c-0.64,0.95-1.26,1.91-1.89,2.87c-1.42,0.92-1.79,2.58-2.72,3.85c-1.3,1.74-2.53,3.54-3.57,5.46
			c-1.81,2.18-3.62,4.36-5.43,6.55c-1.08,0.54-1.81,1.52-2.75,2.24c-1.26,0.96-2.05,0.65-2.23-0.91c-0.18-1.59-0.1-3.19,0.09-4.78
			c0.35-2.82,0.7-5.63,1.05-8.44l0,0c0.69-1.41,0.83-2.98,1.12-4.47c1.09-5.54,2.92-10.83,5.09-16.02c1.07-2.57,2.49-4.96,3.68-7.46
			c1.19-1.4,2.13-3.02,3.56-4.22c1.93-1.41,3.33-3.38,5.27-4.8c5.26-3.84,10.65-7.3,17.57-6.93v0c1.43,0.29,2.32,1.17,2.97,2.46
			c1.99,3.97,0.5,7.22-2.33,10.79C585.76,492.08,583.3,493.97,581.27,496.23z"/>
		<path class="st2" d="M854.4,513.35c-0.18-1.11-1.14-0.92-1.9-1.02c-0.44-0.06-0.89-0.07-1.34-0.08
			c-6.49-0.21-12.9-0.93-19.15-2.85c-1.22-0.37-1.78-0.98-1.48-2.27c0.3-1.31,0.55-2.63,0.91-3.92c0.43-1.54,0.84-3.08,0.8-4.69
			c-0.09-3.14-2.7-4.72-5.4-3.17c-3.05,1.76-5.6,4.11-7.71,6.93c-2.2,1.94-4.12,4.19-6.42,6.02c-0.26,0.21-0.48,0.61-0.87,0.38
			c-0.36-0.21-0.26-0.64-0.17-0.96c0.23-0.81,0.48-1.63,0.8-2.41c1.25-3.11,0.99-3.87-1.31-6.3c-1.13-1.2-2.54-2.32-3-4.01
			c-0.87-3.14-3.13-3.92-5.34-1.53c-3.9,4.2-8.96,6.58-13.79,9.35c-0.26,0.15-0.52,0.37-0.82,0.16c-0.37-0.27-0.16-0.63-0.06-0.96
			c0.51-1.62,0.99-3.24,1.54-4.84c0.27-0.78,0.4-1.56,0.19-2.35c-0.21-0.83-0.78-1.39-1.6-1.65c-0.76-0.24-1.23,0.23-1.65,0.75
			c-1.38,1.69-3.19,2.86-4.91,4.13c-2.76,2.04-5.76,3.76-8.13,6.32c-1.69,1.82-3.26,3.79-5.42,5.12c-0.75,0.01-1.43,1.11-2.17,0.37
			c-0.66-0.67-0.49-1.66-0.3-2.55c0.24-1.16,0.52-2.29,0.94-3.41c0.69-1.8,1.88-3.36,2.37-5.24h0c0.66-1.22,1.41-2.41,1.96-3.68
			c0.53-1.22-0.27-2.14-1.16-2.78c-0.75-0.53-1.49-0.08-1.84,0.67c-1.41,3.07-3.43,5.79-4.91,8.81
			c-3.76,5.18-7.48,10.39-12.61,14.37c-0.87,0.16-1.45,0.84-2.18,1.24c-1.91,1.05-3,0.69-3.57-1.38c-0.7-2.54-0.12-5.04,0.62-7.49
			c1.36-4.5,3.56-8.63,5.69-12.8c0.97-1.9,2.04-3.76,2.38-5.92c0.3-1.88-0.55-3.59-2.31-4.55c-2.11-1.03-2.11-1.03-0.56-2.8
			c2.77-3.15,5.05-6.65,7.45-10.08c1.72-1.93,3.06-4.07,3.21-6.73c0.09-1.66-1.96-4.28-3.5-4.68l-0.01,0
			c-0.47-0.74-1.26-0.94-2.02-1.17c-2.63-0.8-5.35-0.8-8.02-0.5c-1.36,0.15-2.9,0.08-4.07,1.1c-3.02,0.89-5.96,1.96-8.59,3.74
			c-2.82,1.9-5.51,3.96-7.3,6.93c-0.54,0.9-1.01,1.99-0.34,2.95c0.68,0.96,0.22,1.42-0.45,1.96c-2.99,2.42-6.06,4.69-9.73,6.01
			c-0.39,0.03-0.84-0.05-1.18,0.11c-3.14,1.46-6.33,1.45-9.58,0.46l0,0c-0.94-0.72-1.61-1.62-1.78-2.82
			c-0.09-0.62-0.19-1.28-0.94-1.33c-0.7-0.05-0.96,0.57-1.23,1.13c-0.28,0.58-0.26,1.12-0.09,1.73c0.86,3.05,3.15,4.46,5.98,5.22
			c4.38,1.18,8.35-0.1,12.22-2.04c2.05-1.03,3.97-2.3,6.01-3.45c-1.05,2.72-2.45,5.21-3.44,7.89l0,0c-0.15,0.26-0.32,0.51-0.45,0.78
			c-4.82,9.47-9.61,18.95-15.03,28.09c-1.2,2.02-2.05,4.23-2.57,6.52c-0.34,1.48,0.22,2.24,1.5,2.4c1.27,0.16,2.25-0.49,2.18-1.83
			c-0.12-2.36,0.99-4.25,2.04-6.14c3.26-5.89,6.88-11.57,9.61-17.75c0.28-0.63,0.66-1.32,1.55-1.77c0.01,1.8,0.88,2.78,2.46,3.23
			c1.34,0.38,2.44-0.14,3.56-0.72c5.18-2.71,9.45-6.64,13.89-10.36c1.26-1.06,2.44-2.21,3.73-3.24c0.87-0.7,3.63-0.79,4.28-0.1
			c1.01,1.08-0.08,2.02-0.44,2.96c-1.56,4.1-3.94,7.83-5.51,11.94c-1.47,3.85-2.7,7.78-2.44,11.93c0.15,2.45,0.87,4.78,3.52,5.97
			c2.41,1.08,4.36,0.07,6.35-1.02c1.93-0.62,3.18-2.13,4.51-3.51c2.09-2.17,4.19-4.33,5.86-6.82c0.54,0.27,0.4,0.69,0.51,0.99
			c1.19,3.39,4.31,4.92,7.03,3.37c0.77-0.44,1.48-1.03,2.11-1.65c1.5-1.49,3.28-2.73,4.29-4.68c1.21-1.41,2.62-2.59,4.18-3.59
			c1.5-0.97,3.16-1.7,4.47-2.96c0.18-0.18,0.41-0.38,0.65-0.2c0.29,0.22,0.14,0.54,0.04,0.82c-0.46,1.26-0.95,2.51-1.38,3.78
			c-0.43,1.28-1.21,2.22-2.32,3.01c-2.18,1.56-4.33,3.19-6.43,4.87c-4.55,3.66-8.49,7.99-12.75,11.97c-3.94,3.67-7.61,7.61-10.77,12
			c-1.8,1.52-2.66,3.64-3.65,5.68l0,0c-1.28,2.16-2.07,4.53-2.72,6.92c-1.24,4.56-1.52,9.12,0.81,13.49c1.41,2.63,3.5,4.07,6.6,4.04
			c2.19-0.02,3.93-0.91,5.55-2.22c1.53-0.72,2.77-1.77,3.64-3.24l0,0c4.08-4.45,7.06-9.6,9.56-15.05c0.06-0.1,0.1-0.19,0.13-0.29
			c2.07-4.53,3.31-9.35,4.65-14.12c0.51-1.61,0.96-3.25,1.55-4.83c1.96-5.29,4.69-10.24,6.87-15.42c1.17-2.76,3.05-4.45,5.46-5.82
			c0.7-0.4,1.36-0.93,2.25-0.93c0.09,0.53-0.23,0.76-0.41,1.04c-1.63,2.57-3.1,5.22-3.96,8.18c-0.85,2.95-0.08,6,2.05,7.78
			c1.29,1.08,2.49,1.26,3.67,0.37c1.5-1.14,3.01-2.3,4.13-3.85c2.09-2.28,4.06-4.65,5.91-7.13c0.49-0.66,0.98-1.63,1.92-1.48
			c1.24,0.2,1.96-0.21,2.46-1.63c0.46,1.51,0.12,2.69,0.18,3.85c0.08,1.3,0.6,2.2,1.77,2.7c1.11,0.47,1.78-0.32,2.47-0.96
			c3.55-3.3,6.57-7.11,9.9-10.62c0.54-0.09,0.8-0.54,1.17-0.87c1.22-1.08,2.28-2.37,3.79-3.09c0.36-0.17,0.7-0.51,1.09-0.24
			c0.39,0.27,0.2,0.74,0.16,1.12c-0.03,0.29-0.12,0.59-0.22,0.86c-0.77,1.96-1.12,4.02-1.4,6.08c-0.34,2.53,0.88,4.44,3.24,5.39
			c1.44,0.58,2.96,0.82,4.44,1.25c1.69,0.89,3.5,1.28,5.4,1.19l0,0c0.52,0.46,1.16,0.56,1.8,0.56c3.32,0.02,6.64,0.01,9.96,0.01
			c0.55,0,1.11-0.01,1.43-0.58C853.93,514.9,854.57,514.38,854.4,513.35z M735.4,492.34L735.4,492.34c-2.58,2.28-5.45,4.15-8.41,5.9
			c-0.38,0.22-0.9,0.72-1.32,0.19c-0.37-0.46,0.07-0.91,0.32-1.34c1.77-3.04,4.77-4.55,7.67-6.18c1.67-0.25,3.07-1.35,4.27-1.57
			C737.23,490.16,736.31,491.25,735.4,492.34z M745.41,482.95c-0.73,0.92-1.91,0.77-2.78,1.33l0,0c-4.23,0.44-8.06,2.1-11.8,3.97
			c-1.54,0.77-3.15,1.46-4.45,2.68c-0.13-0.09-0.26-0.19-0.39-0.28c1.07-2.21,2.13-4.41,3.2-6.62l0,0c1.59-1.84,2.21-4.21,3.43-6.27
			c1.26-2.14,2.25-4.43,3.37-6.66c0.34-0.67,0.76-1.4,0.67-2.11c-0.22-1.76,0.97-2.39,2.19-2.98c4.72-2.27,9.7-3.27,14.93-3.03
			c0.1,0,0.2,0,0.3,0.01c3.53,0.14,4.28,1.29,2.87,4.41c-2.52,4.12-5.14,8.17-8.34,11.81C747.54,480.45,746.44,481.67,745.41,482.95
			z M779,515.27c-0.32,0.67-0.66,1.34-0.99,2.01c-0.46,0.29-0.63,0.7-0.55,1.23l0,0l0,0l0,0c-1.47,2.45-2.46,5.11-3.28,7.84
			c-0.01,0.18-0.03,0.37-0.04,0.55c-1.04,1.29-1.29,2.87-1.58,4.43c-1.31,3.11-2.13,6.38-2.95,9.64c-0.9,2.3-1.8,4.6-2.71,6.9
			c-0.48,0.25-0.6,0.7-0.65,1.18c-0.15,0.19-0.33,0.36-0.45,0.57c-1.87,3.29-3.77,6.57-6.35,9.38l0,0l0,0
			c-0.41,0.35-0.85,0.67-1.23,1.05c-1.23,1.23-2.45,2.47-3.96,3.36c-2.28,1.34-3.16,1.21-4.89-0.71c-0.69-0.76-1.13-1.68-1.48-2.63
			c0-0.15-0.05-0.31-0.17-0.46l0,0v0l0,0c-0.64-3.33-0.35-6.59,0.57-9.84c0.54-1.91,1.81-3.52,2.09-5.52l0,0l0,0
			c1.85-3.23,3.91-6.34,6.35-9.15c3.83-4.4,8.1-8.37,12.21-12.5c2.88-2.89,5.92-5.61,9.21-8.05c0.28-0.21,0.57-0.74,0.98-0.38
			C779.5,514.49,779.17,514.92,779,515.27z M799.95,510.7c-0.46-0.01-0.7,0.35-0.95,0.64c-2.2,2.47-4.4,4.93-6.84,7.16
			c-0.85,0.5-1.33,0.17-1.43-0.73c-0.08-0.73-0.14-1.48,0.16-2.19c0.73-1.72,1.44-3.45,2.16-5.17c1.5-2.3,3-4.6,4.5-6.91
			c1.64-1.81,3.18-3.73,5.81-4.23c1.09-0.21,1.72-0.16,1.42,1.17l-0.03,0.15C805.2,504.93,802.64,507.85,799.95,510.7z"/>
	</g>
</g>
</svg>
