<?xml version="1.0" encoding="UTF-8"?><svg id="Layer_1" xmlns="http://www.w3.org/2000/svg" viewBox="0 0 402.95 205.92"><defs><style>.cls-1{fill:#fff;}.cls-2{fill:#878787;}</style></defs><g><path class="cls-2" d="M358.73,103.23c-.17-1.94-1.51-4.13-4.78-4.46-.68-.07-1.33-.08-1.95-.1-.24,0-.49,0-.73-.02-4.44-.17-8.93-.8-13.71-1.92-1-.23-1.51-.41-1.76-.53,0-.28,.07-.84,.31-1.88,.07-.29,.14-.58,.21-.87,.35-1.42,.75-3.04,.66-4.85-.25-5-3.5-7.24-6.6-7.24-1.25,0-2.54,.33-3.85,.99-2.41,1.22-4.65,3-7.07,5.62-.65,.71-1.33,1.42-2.02,2.12-.79-2.11-2.31-3.63-3.1-4.43-.54-.54-1.07-1.25-1.67-2.23-1.23-2.01-2.91-4.75-5.98-4.75-2.17,0-3.95,1.42-5.73,3-2.37,2.11-4.32,3.54-6.25,4.58,.1-2.24-.92-4.22-2.87-5.44-.8-.5-1.65-.76-2.53-.76-1.7,0-2.9,.95-3.62,1.51-.1,.08-.21,.16-.31,.24-.33,.24-.64,.5-.96,.76-.21,.17-.41,.34-.63,.51-1.01,.76-2.02,1.5-3.04,2.24-2.58,1.87-5.21,3.78-7.67,5.98,.61-1.29,1.22-2.57,1.82-3.81,2.45-5.04-.92-7.28-2.01-7.85-.77-.4-1.55-.6-2.33-.6-2.66,0-4.04,2.19-4.72,3.28-.68,1.07-1.31,2.17-1.92,3.22-.65,1.11-1.25,2.17-1.91,3.2-2.98,4.68-6.71,10.01-11.85,14.06l-.18,.14c-.21,.16-.49,.39-.75,.57-.01-.22,0-.58,.12-1.13,.72-3.36,1.82-6.52,3.34-9.66,.51-1.04,1.03-2.08,1.55-3.11,.89-1.78,1.82-3.61,2.66-5.48,2.09-4.6,1.64-8.26-1.31-10.86,.08-.11,.19-.25,.32-.42,2.32-2.91,4.68-6.13,7.21-9.84,2.7-3.95,3.31-7.98,1.72-11.36-1.6-3.39-5.14-5.5-9.95-5.93-.97-.09-1.94-.13-2.89-.13-8.66,0-16.4,3.46-23.66,10.58-.75,.73-3.03,2.97-2.93,6.15,.04,1.19-.47,1.71-2.5,3.22l-.22,.16c-2.39,1.78-5.36,3-9.34,3.82-.58,.12-1.11,.18-1.57,.18-1.16,0-1.89-.36-2.51-1.25l-.17-.24c-.56-.84-1.73-2.58-3.99-2.58-.99,0-1.95,.36-2.85,1.06-1.41,1.1-2.76,3.16-1.21,6.73,1.73,3.99,6.83,6.88,12.13,6.88,.98,0,1.96-.1,2.88-.3,1.53-.33,3.03-.77,4.49-1.33-3.95,8.13-8.52,16.73-13.91,26.18l-.22,.39c-1.32,2.31-2.82,4.93-3.13,8.14-.43,4.37,2.14,5.64,3.71,6.01,.49,.12,.98,.17,1.45,.17,2.59,0,4.61-1.71,5.16-4.35,.93-4.5,3.33-8.39,5.86-12.52,1.51-2.46,3.07-4.99,4.33-7.71,.95,.44,1.96,.67,3,.67,2.36,0,4.36-1.17,5.98-2.12,4.28-2.51,7.99-5.7,11.58-8.78,0,0,1.26-1.08,1.43-1.22-.24,.5-.48,1.01-.71,1.5-1.11,2.33-2.26,4.75-3.26,7.22-1.61,3.99-3.01,8.34-2.41,13.15,.69,5.42,4.21,8.92,8.98,8.92,1.58,0,3.23-.38,4.92-1.13,2.32-1.03,4.24-2.4,5.84-4.17,.55-.6,1.11-1.19,1.67-1.78,.68-.71,1.38-1.44,2.06-2.21,.9,.83,2.09,1.73,3.55,2.18-6.4,5.9-11.94,11.84-16.73,17.96-5.54,7.06-8.05,14.77-7.48,22.91,.52,7.34,5.05,12.27,11.28,12.27,2.68,0,5.5-.96,8.14-2.77,1.36-.93,2.55-1.98,3.55-3.1,5.37-6.09,9.48-13.02,12.22-20.62,.93-2.56,1.69-5.18,2.43-7.72,.55-1.88,1.12-3.82,1.74-5.68,1.15-3.48,2.56-6.99,4.2-10.5,.24,.71,.56,1.42,1,2.15,1.69,2.8,3.81,4.22,6.3,4.22,1.69,0,3.41-.7,5.13-2.08,2.53-2.04,4.51-4.47,6.42-6.81,.46-.57,.93-1.14,1.4-1.7l.43-.52c.24-.29,.46-.56,.68-.81,.93,2.02,2.28,4,4.8,4,2.09,0,3.76-1.5,5.57-3.31,1.62-1.62,3.18-3.32,4.68-4.97,.88-.97,1.78-1.95,2.7-2.92-.11,4.94,1.77,7.23,7.07,9.17,5.02,1.84,10.13,2.85,15.2,3h.33c.46-.05,.9-.05,1.33-.05h1.39c1.63,0,3.38-.11,5.13-1,1-.51,3.65-1.85,3.37-5.09Zm-114.1-33.38c-.45,.45-.92,.71-1.39,.79-2.86,.47-5.52,1.32-8.04,2.35,2.31-4.31,4.7-8.76,6.42-13.58,.01-.03,.07-.13,.13-.2,1.14-1.06,7.79-2.97,12.32-2.97,.32,0,.58,.01,.79,.03-2.98,5.26-6.33,9.7-10.23,13.57Zm23.98,56.74l-.26,.89c-2.64,9.03-6.34,15.51-11.66,20.39-.38,.34-.75,.73-1.13,1.13-.45,.48-1.29,1.36-1.61,1.44,0,0-.06,0-.21-.07-.69-.32-.92-1.01-1.29-3.06-.09-.5-.18-1.02-.31-1.53,.81-5.36,2.24-9.46,4.49-12.88,4.23-6.41,9.57-11.69,15.31-17.04-1.25,3.58-2.31,7.19-3.34,10.73Z"/><path class="cls-2" d="M188.55,89.71c-1.13,0-2.1,.45-2.73,.78-2.29,1.22-5.02,2.55-7.93,3.08l-.21,.04c-.57,.1-1.16,.21-1.6,.21-.09,0-.15,0-.2,0,0-.01-.01-.02-.02-.04-.12-.26-.26-.58,1.03-1.66,1.94-1.63,3.42-3.04,4.65-4.44,1.36-1.53,4.96-5.61,.99-9.73-1.45-1.51-3.01-1.83-4.07-1.83-1.91,0-3.46,.98-4.7,1.77l-.34,.22c-2.77,1.74-4.53,4.22-6.09,6.4-.23,.33-.47,.66-.71,.98-1,1.38-2.36,1.59-3.08,1.59-1.43,0-2.75-.75-3.53-2-1.16-1.85-2.9-4.65-6.12-4.65-1.23,0-2.39,.4-3.72,1.12,.16-.53,.39-1.09,.63-1.69l.24-.61c1.68-4.29,3.85-8.29,6.15-12.53l.06-.11c.67-1.23,1.5-2.77,2.13-4.38,.98-2.52,.1-5.13-2.26-6.64-.84-.54-1.73-.82-2.62-.82-2.52,0-3.85,2.07-4.34,2.85-.54,.85-1.09,1.69-1.65,2.53-2.64,4.01-5.37,8.16-6.86,13.02-.47,1.53-1,3.02-1.59,4.47-1.26-1.32-2.6-1.6-3.51-1.6-1.54,0-2.72,.79-3.5,1.3l-.18,.12c-.87-.26-1.75-.39-2.62-.39-3.43,0-6.01,2.05-7.72,3.4-.81,.64-1.56,1.31-2.28,1.96-.39,.35-.76,.69-1.14,1.01,.07-.43,.18-.89,.29-1.38,.15-.64,.31-1.31,.41-2.03,.34-2.41-.37-4.51-1.95-5.99,1.18-.49,2.15-1.2,2.95-1.79,.19-.14,.37-.28,.56-.41,.98-.7,1.65-1.59,2.18-2.3,.12-.16,.24-.32,.36-.47,.55-.69,.71-1.41,.81-1.84l-.08-2.05c-.62-1.51-2.03-2.48-3.59-2.48-.52,0-1.02,.1-1.51,.31l-.2,.08c-1.08,.46-2.3,.98-3.42,1.81-.19,.14-.51,.31-.85,.49-1.29,.68-3.7,1.96-4.05,5.12-.09,.81,.15,1.71,.64,2.46-.89,.49-1.56,1.16-2.03,1.65-.11,.12-.23,.23-.34,.35-3.15,3.07-5.14,6.85-6.82,10.47-3.91,8.42-7.97,15.68-12.4,22.19-.18,.26-.36,.55-.54,.83-.17,.28-.43,.7-.64,.96-.09-.32-.16-.84-.21-1.22-.07-.5-.14-1-.25-1.47-.08-.38-.09-.9-.03-1.46,.49-4.24,1.44-8.5,2.9-13.01,.94-2.91,2.24-4.45,4.5-5.31,1.74-.67,3.28-1.58,4.77-2.47,.45-.26,.89-.53,1.34-.79,2.07-1.19,2.98-3.45,2.16-5.38-.46-1.09-1.37-1.87-2.47-2.17,1.08-1.73,2.03-3.59,2.84-5.57l.13-.31c.74-1.79,2.71-6.53-2.22-9.16-.88-.47-1.77-.71-2.63-.71-2.54,0-3.88,1.9-4.62,3.01-2.36-2.54-5.37-3.83-8.96-3.83-1.77,0-3.72,.31-5.95,.95-12.35,3.54-21.37,11.97-27.56,25.79-3.46,7.71-5.87,16.6-7.39,27.17-.11,.75-.25,1.5-.39,2.25-.45,2.42-.95,5.15-.48,8.05,.92,5.65,4.53,7.67,7.61,7.67,1.91,0,3.86-.71,5.79-2.1,1.13-.82,2.09-1.75,2.97-2.62,5.52-5.49,10.19-11.77,13.88-18.66,1.12-2.09,2.4-4.09,3.72-5.95-.13,1.12-.19,2.26-.14,3.45,.01,.32,.02,.64,.02,.96,.03,1.41,.05,3.01,.51,4.69,1.19,4.34,4.12,7.12,8.71,8.25,.78,.19,1.56,.29,2.31,.29,4.58,0,7.15-3.63,7.99-4.82,1.1-1.55,2.08-3.15,3.04-4.7,.53-.86,1.06-1.71,1.6-2.55,2.29-3.55,4.16-7.31,5.96-10.94,.66-1.32,1.32-2.67,2.01-4,2.09,3.25,4.78,3.83,6.42,3.83s3.39-.57,5.15-1.69c-.42,1.46-.68,3.01-.69,4.65-.04,6.04,2.99,8.44,5.54,9.39,.86,.32,1.73,.48,2.57,.48,3.89,0,6.13-3.32,7.09-4.73,1.95-2.89,4.01-5.96,6-9.09,1.42,1.41,2.95,1.66,3.86,1.66,1.67,0,3.33-.77,4.93-2.3,.55-.52,1.08-1.12,1.63-1.83,.03-.03,.05-.07,.08-.1,2.37,3.33,6.09,5.23,10.23,5.23,.75,0,1.51-.06,2.27-.19,.28-.04,.51-.07,.69-.07,.04,0,.07,0,.1,0,.06,.08,.16,.24,.3,.53,1.84,3.86,5.26,6.1,9.41,6.16,0,0,.23,0,.23,0,7,0,11.92-4.06,15.02-7.12,1.83-1.8,2.1-4.36,.66-6.22-.82-1.06-1.99-1.64-3.31-1.64Zm-102.92-11.52c-8.79,8.09-15.39,17.9-21.76,27.39-1.48,2.2-2.96,4.4-4.46,6.58-1.24,1.79-2.81,3.96-4.7,6.01v-.37c1.56-13.71,4.75-24.17,10.04-32.9,3.97-6.55,10.02-11.38,17.98-14.36,.42-.16,1.11-.21,1.79-.27l.36-.03c.3-.03,.6-.04,.87-.04,1.35,0,2.33,.31,2.69,.85,.35,.52,.43,1.77-.39,3.73-.53,1.26-1.34,2.4-2.42,3.4Z"/></g><g><path class="cls-1" d="M114.48,71.63c2.13,.26,3.62-1.11,5.16-2.21,.77-.55,1.33-1.43,1.93-2.19,.18-.23,.21-.59,.3-.89-.22-.53-.69-.75-1.14-.55-1.04,.45-2.12,.89-3.02,1.55-1.38,1.01-3.45,1.35-3.7,3.52-.03,.25,.27,.75,.46,.77Z"/><path class="cls-1" d="M353.65,101.75c-.83-.08-1.66-.07-2.5-.1-4.83-.19-9.59-.9-14.29-2-4.02-.94-4.63-1.9-3.69-6,.37-1.63,.88-3.21,.8-4.89-.19-3.8-2.74-5.42-6.1-3.72-2.39,1.2-4.38,2.99-6.21,4.97-1.91,2.08-3.94,4.05-5.96,6.03-.32,.31-.95,.68-1.25,.56-.55-.22-.32-.84-.1-1.29,1.49-3.14-.01-5.4-2.14-7.54-.81-.82-1.49-1.79-2.1-2.78-2.52-4.11-3.49-4.33-7.16-1.08-2.26,2.01-4.61,3.85-7.28,5.23-1.54,.79-3.08,2.84-4.72,1.82-.99-.61,.36-2.71,.67-4.14,.31-1.45-.11-2.68-1.37-3.47-1.28-.8-2.17,.2-3.09,.88-.54,.39-1.03,.85-1.56,1.25-4.92,3.7-10.15,7.01-14.18,11.78-.6,.71-1.45,1.61-2.56,1.09-1.4-.66-.98-2.02-.74-3.09,.25-1.12,.83-2.17,1.31-3.22,.9-1.97,1.83-3.92,2.78-5.87,.72-1.48,1.04-2.97-.7-3.87-1.61-.84-2.44,.51-3.13,1.62-1.33,2.11-2.5,4.33-3.84,6.43-3.5,5.5-7.35,10.73-12.52,14.8-1.27,1-2.81,2.35-4.47,1.12-1.4-1.03-1.52-2.71-1.12-4.53,.78-3.61,1.97-7.04,3.58-10.34,1.38-2.84,2.87-5.64,4.17-8.52,1.14-2.52,1.83-5.27-.57-7.37-1.97-1.72-1.37-2.86-.04-4.53,2.48-3.13,4.83-6.37,7.08-9.67,4.3-6.28,1.65-11.92-6.02-12.61-9.62-.86-17.48,3.02-24.19,9.6-1.07,1.05-2.08,2.37-2.03,3.91,.1,3-1.88,4.36-3.93,5.88-3.16,2.35-6.77,3.58-10.52,4.36-2.69,.56-5.33,.3-7.15-2.28-.64-.91-1.28-2.24-2.71-1.13-1.12,.88-.8,2.04-.3,3.17,1.52,3.5,6.95,5.85,11.63,4.84,2.76-.59,5.41-1.6,7.89-3,.82-.46,1.74-1.5,2.6-.48,.54,.64-.36,1.53-.7,2.25-4.88,10.4-10.29,20.52-15.98,30.5-1.32,2.31-2.71,4.61-2.98,7.34-.11,1.17-.1,2.44,1.41,2.8,1.57,.37,2.68-.36,2.99-1.87,1.74-8.38,7.84-14.58,11.01-22.24,.44-1.06,1.09-1.78,2.24-.83,2.65,2.17,5.04,.76,7.34-.59,4.33-2.54,8.09-5.85,11.88-9.1,1.26-1.08,2.53-2.19,3.94-3.06,.99-.61,2.36-.77,3.28,.07,.89,.83,0,1.89-.37,2.71-1.75,3.96-3.77,7.8-5.39,11.8-1.49,3.7-2.73,7.56-2.21,11.65,.7,5.5,4.68,7.67,9.7,5.43,1.85-.83,3.47-1.94,4.84-3.45,1.34-1.48,2.78-2.87,4.09-4.38,1.15-1.33,1.84-1.83,3.48-.2,2.79,2.78,4.72,2.66,7.88,.36,2.17-1.58,3.86-3.63,5.54-5.72,1.69-2.11,4.08-3.37,6.46-4.57,.13-.07,.7,.3,.69,.43-.32,3.15-2.65,4.76-4.89,6.53-10.35,8.19-19.95,17.16-28.11,27.57-4.76,6.07-7.4,12.98-6.85,20.84,.61,8.7,7.6,12.13,14.74,7.23,1.09-.74,2.12-1.63,2.99-2.61,5.12-5.81,9.03-12.38,11.65-19.65,1.58-4.37,2.68-8.91,4.15-13.33,2.31-6.96,5.41-13.58,9.07-19.92,.72-1.25,2.23-3.03,3.36-2.38,1.09,.62-.64,2.24-1.12,3.38-1.38,3.28-2.81,6.47-.7,9.97,1.89,3.14,4.14,3.64,6.97,1.35,2.87-2.31,5.05-5.3,7.4-8.11,.97-1.15,1.86-2.41,3.22-3.08,.89-.44,1.68-.6,2.25,.84,1.87,4.75,2.65,4.93,6.18,1.41,3.06-3.06,5.85-6.38,8.89-9.46,1.12-1.13,2.53-3.26,3.92-2.56,1.66,.83-.01,2.93-.18,4.43-.56,5.08,.17,6.42,4.96,8.18,4.72,1.73,9.58,2.68,14.25,2.81,2.48-.2,4.69,.31,6.74-.73,.92-.46,1.84-.96,1.74-2.15-.1-1.2-1.03-1.63-2.09-1.73Zm-117.64-19.43c-2.15,1.52-4.31,3.01-6.49,4.47-.2,.14-.58,0-.88,0,.06-.29,.04-.66,.21-.86,1.85-2.18,4.14-3.73,6.86-4.61,.23-.08,.55,.11,.84,.18-.18,.28-.29,.64-.54,.81Zm10.73-10.34c-.82,.82-1.84,1.43-3.02,1.62-4.46,.73-8.54,2.53-12.53,4.55-.57,.29-1.27,.84-1.78,.26-.48-.55,.18-1.21,.45-1.75,3.07-6.04,6.63-11.84,8.92-18.25,.16-.45,.45-.9,.78-1.25,2.26-2.42,13.97-4.82,17.1-3.56,1.06,.43,1.54,1.18,1.46,2.62-.14,.32-.34,.96-.66,1.52-2.95,5.21-6.47,10.01-10.73,14.23Zm31.44,36.65c-3.1,6.29-5,13.01-6.96,19.7-2.41,8.26-6.06,15.84-12.51,21.76-1.74,1.6-3.39,4.34-6.24,3.01-2.92-1.36-2.67-4.72-3.39-7.14,.75-5.39,2.15-10.31,5.04-14.7,6.12-9.28,14.58-16.37,22.55-23.91,.55-.52,1.34-1.48,2.06-.87,.73,.62-.24,1.48-.56,2.15Zm27.2-15.9c-.02,1.56-.63,2.91-1.54,4.14-2.56,3.51-5.9,6.29-8.81,9.47-.42,.46-1.06,.97-1.68,.41-.29-.26-.45-.97-.31-1.36,1.93-5.56,4.76-10.57,9.23-14.51,.71-.63,1.73-1.23,2.69-.5,.72,.55,.43,1.53,.42,2.35Z"/><path class="cls-1" d="M187.24,93.14c-2.8,1.5-5.7,2.82-8.81,3.38-1.87,.34-4.22,.87-5.3-1.51-.97-2.14,.15-3.79,1.83-5.2,1.53-1.28,3.02-2.64,4.34-4.13,1.44-1.62,3.11-3.56,1.08-5.67-1.78-1.85-3.62-.46-5.36,.63-2.63,1.65-4.19,4.17-5.96,6.61-2.94,4.05-8.93,3.65-11.58-.59-2.45-3.92-3.44-4.11-7.52-1.48-.81,.52-1.55,1.79-2.47,1.38-1.32-.58-.45-2.05-.54-3.13-.15-1.89,.66-3.6,1.32-5.29,1.76-4.5,4.07-8.74,6.37-12.98,.71-1.31,1.43-2.64,1.97-4.03,.47-1.22,.02-2.32-1.08-3.03-1.4-.9-2.21,.16-2.82,1.12-3.04,4.76-6.51,9.38-8.17,14.81-1.83,5.96-4.63,11.4-7.65,16.75-1.71,3.03-3.91,5.78-5.95,8.62-.24,.33-.85,.6-1.25,.56-.52-.06-.74-.69-.6-1.16,1.22-4.1,1.8-8.62,6.17-10.87,1.75-.9,3.01-2.07,3.52-3.94,.4-1.49,.37-2.96-.78-4.22-1.29-1.41-2.38-.49-3.49,.24-.74,.49-1.52,.61-2.37,.35-3.14-.98-5.45,.69-7.69,2.46-1.43,1.14-2.73,2.45-4.16,3.59-1,.8-1.97,2.32-3.35,1.66-1.69-.8-.88-2.68-.84-4.07,.04-1.47,.59-2.92,.79-4.39,.23-1.59-.23-3.01-1.67-3.87-1.77-1.06-2.72,.35-3.78,1.38-2.79,2.73-4.58,6.11-6.2,9.59-3.65,7.86-7.77,15.45-12.64,22.62-1.07,1.57-1.98,3.88-4.52,3.1-2.37-.73-2.1-3.15-2.52-5.04-.17-.79-.17-1.65-.08-2.45,.54-4.63,1.59-9.15,3.03-13.59,1.09-3.36,2.84-5.87,6.28-7.19,2-.77,3.83-1.99,5.7-3.06,.58-.33,1.13-1.02,.89-1.6-.3-.7-1.12-.51-1.73-.19-1.47,.77-2.91,1.62-4.4,2.35-.49,.24-1.13,1.05-1.62,.12-.13-.25,.28-.96,.61-1.27,3.36-3.11,5.78-6.86,7.5-11.07,.81-1.98,1.95-4.27-.72-5.69-2.38-1.27-3.02,1.17-4.16,2.43-.11,.12-.2,.26-.29,.41-.77,1.3-1.51,1.67-2.55,.16-3.33-4.8-7.98-4.76-12.93-3.35-12.69,3.63-20.48,12.62-25.64,24.14-3.75,8.37-5.85,17.28-7.16,26.36-.45,3.12-1.4,6.2-.87,9.4,.83,5.08,4.52,6.63,8.68,3.61,.94-.68,1.79-1.5,2.61-2.32,5.34-5.32,9.79-11.31,13.36-17.96,2.85-5.31,6.56-10.01,10.53-14.51,.32-.36,.67-.99,1.15-.7,.5,.3,.03,.87-.08,1.33-.93,4.2-2.6,8.27-2.39,12.68,.06,1.66-.02,3.31,.43,4.95,.94,3.41,3.16,5.3,6.53,6.13,3.34,.82,5.43-.94,7.14-3.35,1.63-2.3,3.03-4.77,4.57-7.14,3.71-5.74,6.27-12.1,9.62-18.03,.31-.55,.83-1.32,1.29-1.35,.86-.06,.59,.93,.77,1.49,1.89,5.96,5.62,7.05,10.36,3,1.64-1.41,3.16-2.96,4.81-4.35,.83-.7,1.69-2.15,2.83-1.3,.55,.4-.65,1.64-1.11,2.47-2.03,3.64-4.17,7.24-4.2,11.58-.02,2.82,.73,5.49,3.58,6.55,2.88,1.07,4.67-.96,6.13-3.12,2.33-3.45,4.64-6.91,6.85-10.43,1.07-1.72,1.76-2.18,3-.09,1.51,2.53,3.47,2.11,5.36,.31,.48-.46,.92-.97,1.33-1.49,1.55-2,2.74-3.12,4.8-.13,2.2,3.18,5.8,4.58,9.67,3.95,2.25-.37,3.34,.18,4.27,2.13,1.32,2.77,3.71,4.4,6.74,4.44,5.32,.07,9.46-2.65,13.1-6.25,.62-.61,.98-1.5,.4-2.24-.6-.78-1.48-.46-2.25-.05Zm-125.36,20.73c-2.18,3.15-4.52,6.16-7.38,8.72-.6,.54-1.23,1.37-2.12,.96-.87-.4-.63-1.42-.66-2.21-.04-1.16,0-2.32,0-3.71,1.34-11.96,4.11-23.78,10.48-34.28,4.47-7.37,11.29-12.55,19.5-15.61,.91-.34,1.95-.39,2.94-.48,6.02-.52,8.56,3.02,6.2,8.69-.71,1.7-1.81,3.21-3.16,4.45-10.52,9.68-17.77,21.87-25.79,33.47Z"/></g></svg>